<?xml version="1.0" standalone="no"?>
<!DOCTYPE svg PUBLIC "-//W3C//DTD SVG 1.1//EN" "http://www.w3.org/Graphics/SVG/1.1/DTD/svg11.dtd" >
<svg xmlns="http://www.w3.org/2000/svg">
<metadata>
This is a custom SVG webfont generated by Font Squirrel.
Copyright   : Copyright c 2009 by  2009 Designed by Svetoslav Simov  Fontfabric Inc All rights reserved
Foundry     :  2009 Designed by Svetoslav Simov  Fontfabric Inc
</metadata>
<defs>
<font id="ZagRegular" horiz-adv-x="831" >
<font-face units-per-em="2048" ascent="1638" descent="-410" />
<missing-glyph horiz-adv-x="563" />
<glyph unicode=" "  horiz-adv-x="563" />
<glyph unicode="&#x09;" horiz-adv-x="563" />
<glyph unicode="&#xa0;" horiz-adv-x="563" />
<glyph unicode="!" horiz-adv-x="376" d="M4 80q0 39 23.5 61.5t56.5 22.5q39 0 65.5 -22.5t26.5 -61.5q0 -37 -26.5 -64.5t-65.5 -27.5q-33 0 -56.5 27.5t-23.5 64.5zM20 254v1149h132v-1149h-132z" />
<glyph unicode="&#x22;" horiz-adv-x="532" d="M2 950v453h129v-453h-129zM229 950v453h131v-453h-131z" />
<glyph unicode="#" horiz-adv-x="1036" d="M-76 356v129h203l76 387h-199v127h217l74 404h137l-72 -404h166l76 404h133l-71 -404h184v-127h-209l-2 -18l-64 -365l2 -4h203v-129h-233l-68 -356h-137l70 356h-168l-64 -356h-135l61 356h-180zM264 485h174q39 223 66 387h-170q-12 -61 -34 -187t-36 -200z" />
<glyph unicode="$" horiz-adv-x="899" d="M-2 352h129q0 -111 67.5 -172t159.5 -61t163 52t71 142v152q0 49 -19.5 84t-59.5 54.5t-74 28.5t-91 19q-68 14 -103.5 23.5t-89 33t-81 54.5t-50 85t-22.5 128v119q0 137 85 221t214 98v103h129v-107q123 -25 208 -116t85 -238h-131q0 109 -68.5 171t-161.5 62 q-94 0 -162.5 -52t-68.5 -142v-119q0 -147 246 -195q76 -16 124 -31.5t106.5 -49t87 -92t28.5 -142.5v-152q0 -137 -85 -221t-214 -102v-92h-129v92q-129 20 -212 112t-81 250z" />
<glyph unicode="%" horiz-adv-x="1267" d="M-27 1057q2 143 73 240.5t198 95.5q119 -2 192.5 -105.5t71.5 -247.5q-4 -141 -75 -235t-195 -92q-119 0 -193 101.5t-72 242.5zM-14 -2q233 356 526 825q217 338 369 582h149q-49 -78 -162.5 -256t-152.5 -240q-500 -786 -582 -911h-147zM100 1059q0 -90 36 -151.5 t100 -63.5q68 -2 104.5 54t40.5 142q2 86 -37 149.5t-100 65.5q-68 2 -104 -54t-40 -142zM504 340q2 145 72.5 241.5t195.5 94.5q119 -2 192.5 -104.5t71.5 -245.5q-4 -143 -74.5 -237.5t-195.5 -92.5q-117 0 -190.5 101.5t-71.5 242.5zM629 342q-2 -88 35.5 -150.5 t101.5 -64.5q68 -2 104.5 53.5t40.5 143.5q4 86 -35.5 150.5t-103.5 66.5q-68 2 -103.5 -54.5t-39.5 -144.5z" />
<glyph unicode="&#x26;" horiz-adv-x="919" d="M0 322v159q0 74 40 141.5t103 110.5q-129 86 -129 250v107q0 135 87 223t223 88q80 0 154.5 -47t127.5 -123l-106 -78q-74 117 -176 117q-76 0 -128.5 -52.5t-52.5 -127.5v-107q0 -72 48.5 -128t119.5 -56h203v96h129v-96h135v-131h-135v-340q0 -195 154 -195v-131 q-84 0 -151.5 46t-80.5 126q-12 -76 -89 -127t-154 -51q-137 0 -229.5 93.5t-92.5 232.5zM131 322q0 -80 56.5 -137.5t134.5 -57.5q82 0 137 58.5t55 142.5v340h-205q-72 0 -125 -57.5t-53 -129.5v-159z" />
<glyph unicode="'" horiz-adv-x="344" d="M16 930v473h129v-473h-129z" />
<glyph unicode="(" horiz-adv-x="485" d="M4 700q0 254 77 478.5t222 343.5l78 -103q-115 -96 -180.5 -295.5t-65.5 -425t62.5 -420t177.5 -294.5l-74 -107q-143 117 -220 343t-77 480z" />
<glyph unicode=")" horiz-adv-x="495" d="M-88 1419l76 103q145 -119 222 -343.5t77 -478.5t-77 -480t-220 -343l-72 107q115 100 177.5 294.5t62.5 419.5q0 227 -64.5 426t-181.5 295z" />
<glyph unicode="*" horiz-adv-x="858" d="M-10 1143l69 114l199 -133q-2 41 -5 134.5t-3 105.5h129l-10 -236q172 113 200 132l35 -54l33 -65l-207 -105q23 -12 67 -36.5t78.5 -44t63.5 -35.5l-72 -119l-202 149q2 -43 7 -129t7 -125h-129l6 248q-31 -25 -101.5 -75t-95.5 -70l-30 53l-37 70l207 110 q-119 62 -209 111z" />
<glyph unicode="+" horiz-adv-x="770" d="M-14 612v129h231v244h129v-244h232v-129h-232v-241h-129v241h-231z" />
<glyph unicode="," horiz-adv-x="288" d="M-27 -92l35 100q-29 18 -28 64q0 33 23.5 57.5t59.5 24.5q41 0 67 -37t5 -88l-74 -152z" />
<glyph unicode="-" d="M-12 537v131h616v-131h-616z" />
<glyph unicode="." horiz-adv-x="253" d="M-33 84q0 39 23.5 64.5t62.5 25.5q41 0 66.5 -25.5t25.5 -64.5t-25.5 -63.5t-66.5 -24.5q-39 0 -62.5 24.5t-23.5 63.5z" />
<glyph unicode="/" horiz-adv-x="765" d="M-94 -78l495 1536h142l-502 -1536h-135z" />
<glyph unicode="0" horiz-adv-x="940" d="M2 315v762q0 154 107.5 238t259.5 84q147 0 255.5 -85t108.5 -237v-762q0 -156 -108.5 -241.5t-255.5 -85.5q-152 0 -259.5 84.5t-107.5 242.5zM131 315q0 -92 69.5 -144t168.5 -52q94 0 163.5 52t69.5 144v762q0 88 -70.5 139.5t-162.5 51.5q-96 0 -167 -51.5 t-71 -139.5v-762z" />
<glyph unicode="1" horiz-adv-x="438" d="M-66 1272v131h226q72 0 71 -76v-1327h-129v1272h-168z" />
<glyph unicode="2" horiz-adv-x="917" d="M0 76v295q0 156 106.5 238.5t260.5 82.5q94 0 153.5 49.5t59.5 139.5v196q0 90 -67 141.5t-157 51.5q-92 0 -159.5 -60.5t-69.5 -169.5h-127q0 170 105.5 265.5t250.5 95.5q143 0 249 -85t106 -239v-196q-2 -147 -96.5 -232.5t-247.5 -85.5q-98 0 -169 -50t-71 -142v-242 h555v-129h-610q-47 0 -59.5 14.5t-12.5 61.5z" />
<glyph unicode="3" horiz-adv-x="927" d="M-2 350h129q0 -111 70.5 -172t167.5 -61q94 0 162.5 51t68.5 143v174q0 78 -67.5 133.5t-161.5 55.5v133q94 0 161.5 57.5t67.5 134.5v74q0 92 -68.5 143.5t-162.5 51.5q-96 0 -167 -60.5t-71 -171.5h-129q0 172 107.5 268.5t256.5 96.5q147 0 256 -86t109 -242v-74 q0 -70 -46 -144.5t-116 -113.5q70 -37 116 -111.5t46 -144.5v-174q0 -156 -108.5 -240.5t-256.5 -84.5q-150 0 -257 96t-107 268z" />
<glyph unicode="4" horiz-adv-x="886" d="M2 602v801h131v-744h424v744h129v-1403h-129v530h-481q-74 0 -74 72z" />
<glyph unicode="5" horiz-adv-x="905" d="M-12 338h129q0 -102 64.5 -160.5t154.5 -58.5q94 0 164.5 53t70.5 145v211q0 76 -55 130.5t-131 54.5h-305q-31 0 -54.5 21.5t-23.5 53.5v537q0 35 23.5 55.5t54.5 20.5h553v-131h-500v-426h252q127 0 222 -95.5t95 -220.5v-211q0 -156 -108.5 -242.5t-257.5 -86.5 q-143 0 -244.5 92t-103.5 258z" />
<glyph unicode="6" horiz-adv-x="925" d="M0 315v772q0 156 103.5 238t254.5 82q90 0 161 -26.5t145 -102.5q-6 -4 -26 -20.5t-26 -22.5q-2 -2 -8 -7t-10 -7l-4 -2l-4 -5l-21 -20q-86 84 -207 84q-96 0 -163.5 -50t-67.5 -141v-317q29 63 98.5 96t136.5 33q152 0 257.5 -82t105.5 -235v-267q0 -154 -108.5 -239.5 t-254.5 -85.5q-150 0 -256 84.5t-106 240.5zM127 315q0 -92 69.5 -143t163.5 -51q92 0 162 51t72 143v267q0 90 -67.5 139t-164.5 49q-98 0 -166.5 -50t-68.5 -145v-260z" />
<glyph unicode="7" horiz-adv-x="870" d="M-47 1272v131h647q70 0 70 -72v-217q0 -100 -66 -196l-352 -484q-39 -61 -39 -133v-301h-129v301q0 117 61 205q43 59 54 74q98 133 125 170q18 29 69 98q37 51 107 149q43 61 43 119v156h-590z" />
<glyph unicode="8" horiz-adv-x="911" d="M0 313v162q0 76 53 156t123 98q-70 25 -118 103.5t-48 154.5v117q0 152 105.5 234.5t253.5 82.5q143 0 249.5 -84t106.5 -233v-117q0 -84 -47 -163t-129 -91q82 -12 133 -93t51 -165v-162q0 -158 -109.5 -244.5t-256.5 -86.5q-152 0 -259.5 86.5t-107.5 244.5zM129 313 q0 -94 70.5 -147t167.5 -53q94 0 164.5 54t70.5 146v162q0 78 -53 133.5t-131 59.5h-103q-78 -4 -132 -59.5t-54 -133.5v-162zM139 987q0 -82 51.5 -137t133.5 -57q43 -4 88 0q78 2 130 58t52 136v117q0 88 -67.5 138t-157.5 50q-94 0 -162 -50t-68 -138v-117z" />
<glyph unicode="9" horiz-adv-x="927" d="M0 815v264q0 156 107.5 241t255 85t255 -85t107.5 -241v-772q0 -156 -104.5 -238.5t-253.5 -82.5q-180 0 -308 131l103 86q82 -86 205 -86q94 0 161.5 50t67.5 140v320q-37 -133 -234 -133q-154 0 -258 81.5t-104 239.5zM127 815q0 -90 68.5 -140t166.5 -50q96 0 165 51 t69 145v258q0 90 -69.5 142.5t-161.5 52.5q-94 0 -165 -51.5t-73 -143.5v-264z" />
<glyph unicode=":" horiz-adv-x="339" d="M-8 283q0 33 21.5 58.5t56.5 25.5q37 0 61.5 -26t24.5 -58q0 -39 -23.5 -60.5t-62.5 -21.5q-35 0 -56.5 21.5t-21.5 60.5zM-8 719q0 33 21.5 57.5t56.5 24.5q37 0 61.5 -24.5t24.5 -57.5q0 -37 -23.5 -59.5t-62.5 -22.5q-35 0 -56.5 22.5t-21.5 59.5z" />
<glyph unicode=";" horiz-adv-x="339" d="M-14 281q0 35 23.5 60.5t60 25.5t61.5 -26t25 -58q0 -8 -11 -39q0 -4 -24 -74q-10 -41 -31 -92l-90 12l25 121q-39 21 -39 70zM-8 719q0 33 21.5 57.5t56.5 24.5q37 0 61.5 -24.5t24.5 -57.5q0 -37 -23.5 -59.5t-62.5 -22.5q-35 0 -56.5 22.5t-21.5 59.5z" />
<glyph unicode="&#x3c;" horiz-adv-x="774" d="M-3 601q-1 38 36 56h-2q401 233 471 277v-152q-23 -12 -52.5 -28.5t-66.5 -36t-57 -29.5q-23 -12 -75 -39.5t-85 -48.5q10 -6 34.5 -17.5t37.5 -17.5q184 -98 264 -149v-152l-473 279q-31 20 -32 58z" />
<glyph unicode="=" horiz-adv-x="880" d="M0 532v130h623v-130h-623zM0 774v129h623v-129h-623z" />
<glyph unicode="&#x3e;" horiz-adv-x="663" d="M0 264v154q90 55 244 135q31 16 88 47q-143 74 -332 182v152q178 -111 469 -277h-2q37 -18 36 -57t-34 -57z" />
<glyph unicode="?" horiz-adv-x="829" d="M-16 1047q8 147 101 246.5t222 99.5q133 0 228.5 -93.5t95.5 -228.5v-115q0 -184 -178 -290q-94 -55 -95 -160v-227h-131v227q0 182 158 278q115 66 115 174v113q0 78 -56.5 133.5t-136.5 55.5q-76 0 -132 -69t-58 -163zM205 76q0 41 24.5 66.5t67.5 25.5 q33 0 58.5 -26.5t25.5 -65.5q0 -33 -26.5 -60.5t-57.5 -27.5q-41 0 -66.5 26.5t-25.5 61.5z" />
<glyph unicode="@" horiz-adv-x="1234" d="M-6 303v356q-2 231 160.5 385t361.5 154q123 0 239.5 -52t200.5 -164t86 -259v-625q0 -96 -78.5 -142t-165.5 -12.5t-106 130.5q-63 -55 -174 -56q-117 -4 -206 83t-89 206v357q0 117 89 201.5t206 84.5q102 0 170 -59v27l143 10q-47 63 -139 100t-180 37 q-147 0 -270 -119t-119 -287v-356q0 -172 123 -278.5t291 -106.5q53 0 165 33l37 -129q-121 -35 -202 -35q-223 0 -383 139t-160 377zM354 307q0 -63 49.5 -112.5t114.5 -47.5q70 0 120 31t50 86v426q0 61 -49 96t-121 37q-66 0 -115 -47t-49 -112v-357zM819 96 q0 -29 22.5 -43t45 -0.5t22.5 45.5v625q0 88 -73 199z" />
<glyph unicode="A" horiz-adv-x="1048" d="M-16 0l344 1350q14 47 49 73.5t72 26.5q35 0 69.5 -27.5t46.5 -70.5l350 -1352h-145l-131 504h-385q-115 -444 -129 -504h-141zM285 635h321l-153 670zM449 1323l4 -18q0 6 2 10z" />
<glyph unicode="B" horiz-adv-x="948" d="M0 117v1200q0 53 30.5 85t84.5 32h293q133 -2 230 -96.5t97 -233.5v-74q0 -49 -15 -99t-58.5 -97.5t-106.5 -61.5q98 -16 150.5 -99t52.5 -173v-174q0 -129 -99.5 -227.5t-224.5 -100.5h-319q-53 0 -84 32t-31 87zM115 1300h16v17zM119 131q12 -4 12 -14v14h-12zM131 131 h303q76 4 133.5 60.5t57.5 134.5v174q0 82 -57.5 141t-137.5 59h-299v-569zM131 836h299q74 0 123 57t49 137v74q0 82 -57.5 139t-136.5 57h-277v-464z" />
<glyph unicode="C" horiz-adv-x="937" d="M0 328v782q0 162 109.5 251t265.5 89q150 0 263.5 -100.5t115.5 -276.5h-138q0 113 -70.5 178.5t-168.5 65.5q-100 0 -172 -55.5t-72 -151.5v-782q2 -96 74 -151.5t170 -55.5t168.5 65.5t70.5 178.5h138q-2 -176 -115 -276.5t-262 -100.5q-156 0 -266.5 89t-110.5 251z " />
<glyph unicode="D" horiz-adv-x="950" d="M0 117v1202q0 51 33 83t82 32h321q129 0 226.5 -98.5t97.5 -231.5v-776q0 -139 -96.5 -233.5t-227.5 -94.5h-321q-51 0 -83 34t-32 83zM115 1300h16v19zM131 1300l4 -1167h301q78 0 134.5 57.5t56.5 137.5v774q0 80 -57.5 139t-133.5 59h-305z" />
<glyph unicode="E" horiz-adv-x="841" d="M0 332v985q0 49 36 83t83 34h510v-134l-496 -4v-495h473v-133h-473v-336q0 -80 57.5 -139.5t137.5 -59.5h301v-133h-301q-133 0 -230.5 99.5t-97.5 232.5z" />
<glyph unicode="F" horiz-adv-x="811" d="M2 0v1317q0 49 36 83t83 34h508v-134l-494 -4v-493h461v-133h-461v-670h-133z" />
<glyph unicode="G" horiz-adv-x="948" d="M0 330v784q0 160 110.5 249t266.5 89q152 0 263.5 -99.5t113.5 -275.5h-136q0 113 -71.5 177.5t-169.5 64.5q-100 0 -173 -54.5t-73 -150.5v-784q2 -98 76 -153.5t174 -55.5q98 0 170 53t74 148v337h-242v132h258q51 0 84 -31t33 -82v-356q0 -158 -111.5 -246t-265.5 -88 q-156 0 -268.5 90t-112.5 252z" />
<glyph unicode="H" horiz-adv-x="890" d="M0 0v1434h133v-660h438v660h134v-1434h-134v643h-438v-643h-133z" />
<glyph unicode="I" horiz-adv-x="362" d="M20 0v1434h136v-1434h-136z" />
<glyph unicode="J" horiz-adv-x="940" d="M-6 369h135q0 -119 72.5 -186.5t173.5 -67.5q98 0 169.5 57t71.5 158l-4 970h-237v134h258q49 0 84 -34t35 -81v-989q0 -164 -114 -258.5t-267 -94.5q-156 0 -266.5 104t-110.5 288z" />
<glyph unicode="K" horiz-adv-x="935" d="M0 0v1434h131v-637h115q88 0 158.5 52t95.5 142q18 70 60 221.5t61 221.5h143q-8 -29 -32.5 -119t-37.5 -133q-20 -74 -61 -226q-23 -82 -80 -147.5t-150 -75.5q94 -16 150.5 -82.5t79.5 -150.5v2q18 -66 53 -202t39 -157q4 -12 16.5 -67.5t18.5 -75.5h-137 q-29 106 -64 244v-2q-14 51 -59 229v-2q-27 90 -97.5 142.5t-156.5 52.5h-115v-664h-131z" />
<glyph unicode="L" horiz-adv-x="788" d="M0 115v1319h135l2 -1301h510v-133h-522h-10q-41 0 -76 30q-39 34 -39 85z" />
<glyph unicode="M" horiz-adv-x="1071" d="M0 0v1327q0 49 28.5 78t66.5 30h4q36 0 69 -21q35 -22 45 -60q51 -156 122 -420t93 -344q43 131 118 392t113 378q14 43 50 64q30 19 61 19h8q35 -3 63.5 -32t30.5 -80v-1331h-131v8h-2v1024l15 187l-234 -707q-25 -66 -90 -66q-59 0 -88 60l-225 727l14 -201v-1032h-131 z" />
<glyph unicode="N" horiz-adv-x="942" d="M0 0v1335q-2 47 27.5 76t70.5 29q33 0 59.5 -19.5t35.5 -52.5l-3 4l469 -1235l-30 191l-11 1106h134v-1334q0 -47 -28 -73.5t-65 -26.5q-63 0 -90 63q-68 168 -146.5 373t-175.5 466t-143 376l27 -211v-1067h-131z" />
<glyph unicode="O" horiz-adv-x="944" d="M0 326v784q0 158 111.5 247t265 89t265.5 -89t112 -247v-784q0 -160 -112 -249t-265.5 -89t-265 89t-111.5 249zM131 326q0 -96 72.5 -150.5t173.5 -54.5q98 0 171 54t73 151v784q0 94 -73 148.5t-171 54.5q-100 0 -173 -54.5t-73 -148.5v-784z" />
<glyph unicode="P" horiz-adv-x="880" d="M0 0v1317q0 49 35 83t80 34h295q131 0 226 -99.5t95 -230.5v-211q0 -131 -95 -229.5t-226 -98.5h-279v-565h-131zM131 698h279q78 0 133 57.5t55 137.5v211q0 80 -56.5 138t-131.5 58l-279 -4v-598z" />
<glyph unicode="Q" horiz-adv-x="942" d="M0 328v782q0 160 110.5 248t266.5 88q152 0 263.5 -89t111.5 -247v-782q0 -111 -56 -189l70 -69l-100 -99l-48 56q-2 2 -10 9t-14 13q-109 -61 -217 -61q-154 0 -265.5 90t-111.5 250zM131 324q2 -94 73.5 -148.5t170.5 -54.5q59 0 119 24q-16 18 -68 64l96 98l72 -69 q25 45 24 90v782q0 94 -70.5 148.5t-168.5 54.5q-100 0 -173 -54.5t-75 -148.5v-786z" />
<glyph unicode="R" horiz-adv-x="905" d="M0 0v1317q0 53 33 86t84 33h286q141 0 234.5 -93.5t93.5 -234.5v-219q0 -82 -66.5 -167t-154.5 -97q96 -12 161.5 -98.5t65.5 -170.5v-356h-133v356q0 82 -76.5 141.5t-162.5 59.5h-234v-557h-131zM121 1303h10v8q-4 -8 -10 -8zM131 690h234q84 0 158.5 58.5t74.5 140.5 v219q0 80 -56.5 137.5t-138.5 57.5h-272v-613z" />
<glyph unicode="S" horiz-adv-x="905" d="M0 358h131q0 -113 68.5 -175t165 -62t167 54t70.5 147v151q0 68 -40 110t-85 56t-123 27q-68 14 -105.5 23t-92 34t-83 56.5t-51 87t-22.5 128.5v121q0 158 108.5 246t260.5 88q147 0 256.5 -99.5t109.5 -271.5h-133q0 111 -69.5 174.5t-163.5 63.5q-96 0 -167 -53.5 t-71 -147.5v-121q0 -49 21.5 -85t63.5 -58.5t77 -32.5t90 -22q61 -12 101 -22.5t92.5 -35t83 -56.5t53 -86t22.5 -124v-151q0 -158 -110.5 -247t-259.5 -89q-152 0 -259.5 98t-105.5 274z" />
<glyph unicode="T" horiz-adv-x="1007" d="M-14 1300v134h813v-134h-344v-1300h-133v1300h-336z" />
<glyph unicode="U" horiz-adv-x="944" d="M0 322v1112h131q0 -995 -2 -1112q6 -92 81 -148.5t169 -56.5q98 0 170 54t72 151v1112h133v-1112q0 -160 -112 -249t-265.5 -89t-265 89t-111.5 249z" />
<glyph unicode="V" horiz-adv-x="1038" d="M-31 1434h142l305 -1227l16 -137l17 131q33 119 157.5 640t149.5 593h143q-205 -795 -352 -1354q-14 -45 -47 -70.5t-68 -25.5q-86 0 -117 98q-309 1211 -346 1352z" />
<glyph unicode="W" horiz-adv-x="1288" d="M-14 1434h133q49 -244 90 -459q25 -129 90 -512q14 -119 27 -184l14 -154h8l8 154q8 51 19.5 156.5t17.5 156.5q2 18 20.5 153.5t28.5 198.5q16 72 100.5 72t102.5 -62l90 -675l8 -154h9l12 147q27 154 95.5 552.5t105.5 609.5h139l-258 -1334q-10 -47 -39 -75.5 t-63.5 -28.5t-62.5 28.5t-36 77.5l-90 635l-6 168h-12l-9 -166q-12 -78 -28.5 -223t-24.5 -199q-23 -170 -29 -217q-8 -47 -36.5 -74.5t-63.5 -27.5t-64.5 26.5t-41.5 73.5q-10 59 -70 361q-12 63 -53 282q-29 154 -39 203q-37 191 -92 490z" />
<glyph unicode="X" horiz-adv-x="894" d="M-55 1434h147q6 -12 25.5 -54.5t27.5 -62.5q41 -92 119 -269.5t96 -218.5q47 102 139.5 314.5t127.5 290.5h149l-342 -727q53 -111 154 -328q106 -223 176 -379h-141l-263 590q-25 -55 -84 -195.5t-92 -210.5q-14 -29 -43.5 -92t-44.5 -92h-145q66 133 131 272 q178 379 207 441q-16 33 -344 721z" />
<glyph unicode="Y" horiz-adv-x="894" d="M-47 1434h143q117 -266 234 -566l35 -139l34 141q137 346 232 564h147l-346 -813v-621h-135v623q-47 115 -139 327q-133 308 -205 484z" />
<glyph unicode="Z" horiz-adv-x="845" d="M-8 44q-13 22 -13.5 50.5t13.5 63.5l567 1142h-532v134h579q74 0 97 -41q10 -18 11 -41q0 -29 -18 -66l-569 -1153h555v-133h-596q-67 0 -94 44z" />
<glyph unicode="[" horiz-adv-x="407" d="M0 -33v1477q0 33 14.5 48t51.5 15h280v-131h-217v-1343h217v-129h-280q-37 0 -51.5 14t-14.5 49z" />
<glyph unicode="\" horiz-adv-x="704" d="M-92 1458h139l500 -1544h-135q-6 14 -31 88q-31 94 -35 107q-10 31 -59 186.5t-80 249.5q-295 897 -299 913z" />
<glyph unicode="]" horiz-adv-x="401" d="M-109 33h195v1343h-195v131h261q37 0 51 -15t14 -48v-1477q0 -35 -14.5 -49t-50.5 -14h-261v129z" />
<glyph unicode="^" horiz-adv-x="698" d="M-29 1253l234 170q47 37 88 0q35 -25 229 -168l-80 -104l-190 147q-12 -10 -44 -33.5t-48 -35.5q-72 -55 -99 -78z" />
<glyph unicode="_" horiz-adv-x="1075" d="M-14 -27v133h897v-133h-897z" />
<glyph unicode="`" horiz-adv-x="811" d="M106 1554l140 84l168 -309l-140 -2z" />
<glyph unicode="a" d="M0 307v74q0 127 93 221t222 94q59 0 114.5 -27.5t76.5 -84.5l-4 92q0 76 -54.5 130t-132.5 54q-74 0 -153 -76l-76 113q106 96 229 96q129 0 223.5 -93t94.5 -224v-676h-115l-12 90q-53 -102 -191 -102q-129 0 -222 95t-93 224zM131 307q0 -78 54.5 -133t129.5 -55 q74 0 130.5 37t56.5 100v156q0 72 -53.5 112.5t-133.5 40.5q-78 0 -131 -53t-53 -131v-74z" />
<glyph unicode="b" horiz-adv-x="837" d="M0 0v1411h131v-520q25 49 78 74.5t106 27.5h6q126 0 220 -92q96 -94 96 -217v-387q0 -125 -97.5 -218t-224.5 -93q-141 0 -186 104l-16 -90h-113zM131 274q0 -66 53.5 -111.5t131 -45.5t134 54t56.5 126v387q0 74 -56.5 125t-134.5 51q-86 0 -134 -46t-50 -122v-418z" />
<glyph unicode="c" d="M0 307v371q0 133 94 225t225 92q127 0 220.5 -103.5t95.5 -252.5h-131q0 94 -53.5 158.5t-131 64.5t-133 -54t-55.5 -130v-371q0 -78 55.5 -132t132.5 -54q76 0 130.5 66.5t54.5 158.5h131q-2 -147 -92 -251.5t-224 -104.5q-131 0 -225 94t-94 223z" />
<glyph unicode="d" horiz-adv-x="835" d="M0 297v387q0 123 96 217q94 92 220 92h6q53 -2 106 -27.5t78 -74.5v520h131v-1411h-113l-16 90q-45 -104 -186 -104q-127 0 -224.5 93t-97.5 218zM131 297q0 -72 56.5 -126t134 -54t131 46t53.5 111v418q-2 76 -50 122t-134 46q-78 0 -134.5 -51t-56.5 -125v-387z" />
<glyph unicode="e" horiz-adv-x="815" d="M-14 307v369q0 129 92 224t225 95q129 0 222 -93t93 -224q0 -133 -92 -217t-223 -84h-186v-70q0 -76 54 -130t132 -54q111 0 180 96l109 -78q-104 -150 -289 -149q-131 0 -224 91t-93 224zM117 489h186q76 0 130 55.5t54 133.5q0 76 -53 130t-131 54t-132 -55t-54 -133 v-185z" />
<glyph unicode="f" horiz-adv-x="483" d="M0 0v1094q0 137 107.5 229t257.5 92v-129q-96 0 -166 -56t-70 -136v-336h211v-129h-211v-629h-129z" />
<glyph unicode="g" horiz-adv-x="835" d="M0 299v387q0 121 97.5 215t224.5 94q139 0 190 -112l18 102h109v-1089q0 -133 -95 -224.5t-227 -91.5q-55 0 -124.5 25.5t-118.5 70.5l76 105q80 -68 167 -68q78 0 134.5 53.5t56.5 129.5v204q-27 -55 -80 -80.5t-106 -25.5q-131 0 -226.5 84t-95.5 221zM131 299v-13 q0 -95 88 -139q52 -26 106 -26q43 0 86 17q97 38 97 141v428q0 63 -58.5 109t-127.5 48q-76 0 -133.5 -53t-57.5 -125v-387z" />
<glyph unicode="h" horiz-adv-x="833" d="M0 0v1403h131l2 -539q20 57 72.5 92t113.5 35q145 0 229.5 -93t84.5 -226l2 -672h-131v672q0 78 -54.5 133t-130.5 55q-78 0 -133 -55t-55 -133v-672h-131z" />
<glyph unicode="i" horiz-adv-x="346" d="M-6 1139q0 39 24.5 63.5t59.5 24.5q37 0 63.5 -24.5t26.5 -63.5q0 -37 -26.5 -61.5t-63.5 -24.5q-35 0 -59.5 24.5t-24.5 61.5zM14 0v983h129v-983h-129z" />
<glyph unicode="j" horiz-adv-x="382" d="M-186 -420l2 133q88 0 146 53.5t58 129.5v1089h132v-1089q0 -133 -97.5 -224.5t-240.5 -91.5zM2 1135q0 39 24.5 63.5t59.5 24.5q37 0 63.5 -24.5t26.5 -63.5q0 -37 -26.5 -61.5t-63.5 -24.5q-35 0 -59.5 24.5t-24.5 61.5z" />
<glyph unicode="k" horiz-adv-x="808" d="M0 0v1401h131v-846h33q147 0 194 109l150 321h139q-37 -82 -74 -158q-41 -92 -96 -217q-16 -39 -57 -76.5t-90 -46.5q51 -6 91 -40.5t56 -73.5l168 -373h-139l-148 319q-47 106 -194 107h-33v-426h-131z" />
<glyph unicode="l" horiz-adv-x="460" d="M0 324v1079h129v-1079q0 -80 62.5 -137.5t154.5 -57.5v-129q-147 0 -246.5 91.5t-99.5 232.5z" />
<glyph unicode="m" horiz-adv-x="1378" d="M0 0v983h106l19 -98q27 55 82 83.5t112 28.5q82 0 151 -42t99 -134q59 176 254 176q125 0 218.5 -97t93.5 -222v-678h-129v678q0 76 -55.5 131t-131.5 55t-131 -55t-55 -131v-678h-129v678q0 76 -55.5 131t-133.5 55q-76 0 -131 -55t-55 -131v-678h-129z" />
<glyph unicode="n" d="M0 0v985h111l16 -98q27 53 82 81.5t108 28.5q127 0 222.5 -97t95.5 -222v-678h-131v678q0 76 -55.5 131t-133.5 55q-76 0 -130 -55t-54 -131v-678h-131z" />
<glyph unicode="o" horiz-adv-x="823" d="M-23 307v373q0 152 96.5 234.5t229.5 82.5t229.5 -83t96.5 -234v-373q0 -152 -97.5 -234.5t-228.5 -82.5q-133 0 -229.5 82.5t-96.5 234.5zM109 307q0 -86 58 -135t136 -49q80 0 137.5 48t57.5 136v373q0 86 -57.5 136t-137.5 50q-78 0 -136 -50t-58 -136v-373z" />
<glyph unicode="p" horiz-adv-x="833" d="M0 -422v1411h113l16 -90q45 104 186 105q127 0 224.5 -93.5t97.5 -218.5v-387q0 -123 -96 -217q-94 -92 -220 -92h-6q-53 2 -106 27.5t-78 74.5v-520h-131zM131 297q2 -76 50 -122t134 -46q78 0 134.5 51t56.5 125v387q0 72 -56.5 126t-134 54t-131 -46t-53.5 -111v-418z " />
<glyph unicode="q" horiz-adv-x="815" d="M0 305v387q0 125 97.5 218.5t224.5 93.5q141 0 186 -105l16 90h113v-1411h-131v520q-25 -49 -78 -74.5t-106 -27.5h-6q-126 0 -220 92q-96 94 -96 217zM131 305q0 -74 56.5 -125t134.5 -51q86 0 134 46t50 122v418q0 66 -53.5 111.5t-131 45.5t-134 -54t-56.5 -126v-387z " />
<glyph unicode="r" horiz-adv-x="563" d="M0 0v979h117l14 -94q47 106 168 106q72 0 154 -45l-45 -117q-53 33 -109 33q-34 0 -69 -12q-91 -33 -99 -133v-717h-131z" />
<glyph unicode="s" horiz-adv-x="759" d="M-27 170l113 59q70 -113 197 -112q76 0 131 44t55 120q0 72 -52 111.5t-128 41.5q-135 4 -217 65.5t-82 196.5q0 137 93 218q95 83 222 83q172 0 283 -166l-111 -73q-76 111 -170 110q-86 0 -141 -61q-45 -41 -45 -117q-2 -63 44 -91t126 -32q129 -4 219 -77.5t90 -214.5 q0 -137 -93 -213q-95 -77 -226 -76q-86 0 -171.5 48t-136.5 136z" />
<glyph unicode="t" horiz-adv-x="497" d="M0 324v1079h129v-416h213v-131h-213v-532q0 -80 68.5 -137.5t162.5 -57.5v-129q-147 0 -253.5 92.5t-106.5 231.5z" />
<glyph unicode="u" horiz-adv-x="817" d="M0 305v678h131v-678q0 -78 52.5 -131t128 -53t129 53t53.5 131v678h129v-678q0 -131 -88.5 -223t-223.5 -92q-131 0 -221 93t-90 222z" />
<glyph unicode="v" horiz-adv-x="835" d="M8 983h139l228 -825l6 -82h10l4 84q135 500 226 823h137l-258 -901q-27 -94 -117 -94q-39 0 -71.5 24.5t-43.5 71.5v-2q-27 90 -120 411.5t-140 489.5z" />
<glyph unicode="w" horiz-adv-x="1069" d="M8 985h135l121 -737l8 -135h9l14 133q2 6 5 19.5t5 19.5q33 117 78 260q25 72 94 71q68 0 96 -75q14 -49 48 -160q14 -66 34 -135l21 -133h8l4 133q78 496 123 739h137q-10 -63 -25.5 -142t-34 -178.5t-28.5 -150.5q-57 -291 -80 -426q-8 -43 -37.5 -66.5t-64.5 -23.5 q-33 0 -62.5 21.5t-40.5 58.5q-39 180 -79 317l-13 121h-12l-10 -121q-16 -59 -39 -149q-45 -156 -47 -164q-12 -37 -42 -60.5t-61 -23.5q-76 0 -100 90q-10 63 -34.5 189t-35.5 188q-51 266 -94 520z" />
<glyph unicode="x" horiz-adv-x="741" d="M-33 0l291 494q-25 43 -283 485h152l205 -373q37 66 108 194l101 179h151l-284 -485q14 -25 126.5 -213.5t165.5 -280.5h-153l-213 387q-33 -59 -106.5 -193.5t-106.5 -193.5h-154z" />
<glyph unicode="y" d="M0 301v682h131v-682q0 -74 57 -127q55 -51 128 -51h6q76 0 128 39t52 108v713h131v-1087q-2 -133 -94.5 -224.5t-219.5 -91.5q-55 0 -126.5 30t-126.5 75l86 100q88 -72 167 -72q76 0 129.5 53.5t53.5 129.5v200q-25 -57 -77 -80.5t-103 -23.5q-127 0 -224.5 91 t-97.5 218z" />
<glyph unicode="z" horiz-adv-x="817" d="M-1 46q-13 21 -13 45q0 29 18 63l490 706q-80 0 -248 -3t-246 -3v131h535q49 0 77.5 -25.5t28.5 -66.5q0 -37 -25 -74l-487 -696q78 0 238.5 3t240.5 3v-129h-514q-67 0 -95 46z" />
<glyph unicode="{" horiz-adv-x="524" d="M-39 637v125q68 0 103.5 42t41.5 99q18 174 91 350.5t200 266.5l68 -103q-100 -84 -156.5 -231.5t-70.5 -292.5q-14 -135 -78 -199q63 -57 78 -188q18 -147 73.5 -293.5t147.5 -220.5l-60 -119q-123 98 -198.5 276.5t-94.5 344.5q-6 61 -41.5 102t-103.5 41z" />
<glyph unicode="|" horiz-adv-x="362" d="M23 -211v1755h129v-1755h-129z" />
<glyph unicode="}" horiz-adv-x="542" d="M-102 -18q193 150 227 524q10 123 84 194q-74 70 -84 193q-18 147 -74.5 291.5t-152.5 224.5l67 113q123 -94 198 -272.5t93 -346.5q4 -57 39 -99t102 -42v-125q-68 0 -102.5 -41t-38.5 -102q-25 -174 -97.5 -351.5t-191.5 -265.5z" />
<glyph unicode="~" horiz-adv-x="753" d="M-6 635l115 59q43 -66 69 -65q23 0 49 26q66 57 129 58q102 0 195 -138l-105 -77q-61 84 -90 84q-16 0 -37 -21q-66 -66 -139 -65q-94 0 -186 139z" />
<glyph unicode="&#xa1;" horiz-adv-x="376" d="M4 1309q0 37 26.5 64.5t65.5 27.5q33 0 56.5 -27.5t23.5 -64.5q0 -39 -23.5 -61.5t-56.5 -22.5q-39 0 -65.5 22.5t-26.5 61.5zM29 -14h131v1149h-131v-1149z" />
<glyph unicode="&#xa2;" horiz-adv-x="839" d="M4 498v381q0 137 97.5 230t230.5 93q51 0 84 -8q18 51 34.5 102.5t18.5 59.5l16 49l138 -19q-33 -115 -86 -253q121 -88 120 -291h-133q-2 96 -58 161.5t-134 65.5q-80 0 -137.5 -56.5t-57.5 -133.5v-381q0 -78 57.5 -133.5t137.5 -55.5t136 66.5t56 165.5h133 q0 -152 -96 -258.5t-229 -106.5q-53 0 -86 10q-18 -49 -21 -55q-6 -16 -21.5 -66.5t-23.5 -70.5l-129 31l74 223q-117 105 -121 250z" />
<glyph unicode="&#xa3;" horiz-adv-x="946" d="M-57 0l51 129h96v418h-102v131h102v409q0 133 92 224.5t228 91.5q141 0 232 -112.5t85 -266.5h-127q4 100 -51 174t-139 74q-78 0 -134.5 -54.5t-56.5 -130.5v-409h262v-131h-262v-418h486v-129h-762z" />
<glyph unicode="&#xa4;" horiz-adv-x="956" d="M-59 512v131h75v88h-75v129h75v211q0 154 108.5 239t258.5 85q147 0 256 -95.5t109 -265.5h-132q0 109 -69.5 169.5t-163.5 60.5q-96 0 -166 -50.5t-70 -142.5v-211h215v-129h-215v-88h215v-131h-215v-197q2 -92 71 -144t163 -52t163.5 61.5t69.5 171.5h134 q0 -172 -109 -268t-256 -96q-150 0 -258.5 86t-108.5 241v197h-75z" />
<glyph unicode="&#xa5;" horiz-adv-x="950" d="M-49 1403l139 4q182 -436 268 -666q76 215 271 664l139 -4q-139 -317 -313 -733h110v-129h-143v-70h143v-131h-143v-338h-133v338h-133v131h133v70h-133v129h102q-16 39 -69.5 167t-84.5 199q-40 97 -153 369z" />
<glyph unicode="&#xa7;" horiz-adv-x="835" d="M-29 166l113 70q84 -119 205 -119q78 0 134 46t58 126q0 76 -54 116.5t-132 43.5q-139 4 -225 77.5t-86 188.5q0 63 39 147q-16 47 -19 99q0 141 98.5 228t229.5 87q172 0 289 -182l-113 -60q-80 111 -178 111q-82 0 -148 -62q-43 -47 -47 -122q0 -121 180 -130 q131 -4 222.5 -79.5t91.5 -214.5q0 -88 -35 -152q14 -45 18 -96q0 -145 -95 -224t-228 -79q-86 0 -173.5 48t-144.5 132zM109 711q0 -57 52 -91t134 -38q113 -6 207 -74q2 10 2 27q0 70 -55.5 114.5t-135.5 48.5q-115 2 -198 58q-6 -22 -6 -45z" />
<glyph unicode="&#xa8;" horiz-adv-x="813" d="M74 1421q0 39 23.5 62.5t60.5 23.5q35 0 58.5 -26.5t23.5 -59.5q0 -37 -22.5 -58.5t-59.5 -21.5t-60.5 21.5t-23.5 58.5zM322 1421q0 39 23.5 62.5t62.5 23.5q35 0 57 -26.5t22 -59.5q0 -37 -22.5 -58.5t-56.5 -21.5q-39 0 -62.5 21.5t-23.5 58.5z" />
<glyph unicode="&#xa9;" horiz-adv-x="1267" d="M2 528v340q0 250 151.5 387.5t362.5 137.5t363.5 -137.5t152.5 -387.5v-340q0 -250 -152.5 -388t-363.5 -138q-209 0 -361.5 138t-152.5 388zM135 528q2 -186 116 -291.5t267 -105.5q156 0 269.5 105.5t113.5 291.5v340q0 182 -113.5 285.5t-269.5 103.5 q-154 0 -267.5 -103t-115.5 -286v-340zM229 537v317q0 127 85 213t204 86t206 -96t87 -236h-125q0 88 -48 146.5t-120 58.5q-70 0 -116 -49t-46 -123v-317q0 -74 45 -125.5t117 -51.5t120 61.5t48 147.5h125q0 -137 -86 -234t-207 -97t-205 86t-84 213z" />
<glyph unicode="&#xaa;" horiz-adv-x="800" d="M-29 713v69q0 127 94.5 222.5t219.5 95.5q57 0 111.5 -26.5t78.5 -76.5v80q0 76 -56.5 131.5t-133.5 55.5q-66 0 -154 -78l-72 114q106 94 226 95q129 0 224 -92.5t95 -225.5v-676h-102l-27 95q-29 -45 -83 -74t-107 -31q-125 0 -219.5 96.5t-94.5 225.5zM10 154v133h611 v-133h-611zM100 713q0 -78 54.5 -133.5t130.5 -55.5q78 2 133 38t55 100v155q0 70 -54 110t-134 42q-76 0 -130.5 -55.5t-54.5 -131.5v-69z" />
<glyph unicode="&#xab;" horiz-adv-x="745" d="M-34 683q1 13 24 42q10 14 40.5 55t45.5 64q35 45 57 78q12 14 34.5 43.5t31.5 42.5q25 33 45 61l108 -76l-235 -313q2 -4 9 -12.5t9 -10.5q10 -14 31 -45q31 -41 102.5 -138t81.5 -109l-104 -89l-254 355q-2 2 -8 12v-2q-19 29 -18 42zM204 682q1 16 25 45v-2 q14 23 46 63.5t47 61.5q43 55 51 72q57 74 108 147l111 -76l-236 -313q6 -8 25 -35q0 -2 11 -13t16 -20q27 -35 92 -124t90 -123l-105 -89l-256 355q-2 0 -8 10q-18 25 -17 41z" />
<glyph unicode="&#xad;" d="M-12 537v131h616v-131h-616z" />
<glyph unicode="&#xae;" horiz-adv-x="1253" d="M-12 528v340q0 250 151.5 387.5t362.5 137.5t363.5 -137.5t152.5 -387.5v-340q0 -250 -152.5 -388t-363.5 -138q-209 0 -361.5 138t-152.5 388zM121 528q0 -186 113.5 -291.5t269 -105.5t269.5 105.5t114 291.5v340q0 182 -114 285.5t-269.5 103.5t-269 -103t-113.5 -286 v-340zM256 297v717q0 39 26.5 68.5t67.5 29.5h189q96 0 166.5 -69.5t70.5 -168.5v-61q0 -100 -86 -176q86 -76 86 -170v-170h-131v166q0 45 -42 76.5t-91 31.5h-129v-274h-127zM383 702h129q47 0 88 32t41 79v66q0 43 -29.5 72.5t-72.5 29.5h-156v-279z" />
<glyph unicode="&#xaf;" horiz-adv-x="856" d="M-14 1305v133h628v-133h-628z" />
<glyph unicode="&#xb0;" horiz-adv-x="964" d="M-16 1049q0 158 111.5 272.5t271.5 114.5q156 0 272.5 -116t116.5 -271q0 -160 -116 -272.5t-273 -112.5q-162 0 -272.5 111.5t-110.5 273.5zM113 1048.5q0 -106.5 74.5 -181t179.5 -74.5q109 0 182.5 74.5t73.5 181t-75 181.5t-181 75q-104 0 -179 -75t-75 -181.5z" />
<glyph unicode="&#xb2;" horiz-adv-x="917" d="M0 76v295q0 156 106.5 238.5t260.5 82.5q94 0 153.5 49.5t59.5 139.5v196q0 90 -67 141.5t-157 51.5q-92 0 -159.5 -60.5t-69.5 -169.5h-127q0 170 105.5 265.5t250.5 95.5q143 0 249 -85t106 -239v-196q-2 -147 -96.5 -232.5t-247.5 -85.5q-98 0 -169 -50t-71 -142v-242 h555v-129h-610q-47 0 -59.5 14.5t-12.5 61.5z" />
<glyph unicode="&#xb3;" horiz-adv-x="927" d="M-2 350h129q0 -111 70.5 -172t167.5 -61q94 0 162.5 51t68.5 143v174q0 78 -67.5 133.5t-161.5 55.5v133q94 0 161.5 57.5t67.5 134.5v74q0 92 -68.5 143.5t-162.5 51.5q-96 0 -167 -60.5t-71 -171.5h-129q0 172 107.5 268.5t256.5 96.5q147 0 256 -86t109 -242v-74 q0 -70 -46 -144.5t-116 -113.5q70 -37 116 -111.5t46 -144.5v-174q0 -156 -108.5 -240.5t-256.5 -84.5q-150 0 -257 96t-107 268z" />
<glyph unicode="&#xb4;" horiz-adv-x="608" d="M57 1313l172 284l150 -65l-180 -219h-142z" />
<glyph unicode="&#xb5;" horiz-adv-x="839" d="M-16 -8v1411h129q0 -119 2 -703q8 -70 62 -122t124 -52q80 0 136.5 53.5t56.5 129.5v692h131l-2 -1059h-131v125q-82 -70 -191 -70q-127 0 -186 64v-469h-131z" />
<glyph unicode="&#xb6;" horiz-adv-x="808" d="M-16 866v207q0 129 93 222.5t224 93.5h236q37 0 57 -21.5t20 -56.5v-1311h-129v551h-184q-131 0 -224 93t-93 222zM115 866q0 -76 54 -130t132 -54h184v573h-184q-78 0 -132 -53t-54 -129v-207z" />
<glyph unicode="&#xb7;" horiz-adv-x="612" d="M14 702q0 68 46 117t114 49q72 0 117 -48t45 -118q0 -72 -44 -115.5t-118 -43.5q-70 0 -115 43.5t-45 115.5z" />
<glyph unicode="&#x2219;" horiz-adv-x="612" d="M14 702q0 68 46 117t114 49q72 0 117 -48t45 -118q0 -72 -44 -115.5t-118 -43.5q-70 0 -115 43.5t-45 115.5z" />
<glyph unicode="&#xb8;" horiz-adv-x="888" d="M182 86l131 18q-4 -86 36 -145t102 -59q25 0 84 24l14 -147q-61 -14 -98 -15q-121 0 -205 94.5t-64 229.5z" />
<glyph unicode="&#xb9;" horiz-adv-x="438" d="M-66 1272v131h226q72 0 71 -76v-1327h-129v1272h-168z" />
<glyph unicode="&#xba;" horiz-adv-x="823" d="M-23 307v373q0 152 96.5 234.5t229.5 82.5t229.5 -83t96.5 -234v-373q0 -152 -97.5 -234.5t-228.5 -82.5q-133 0 -229.5 82.5t-96.5 234.5zM109 307q0 -86 58 -135t136 -49q80 0 137.5 48t57.5 136v373q0 86 -57.5 136t-137.5 50q-78 0 -136 -50t-58 -136v-373z" />
<glyph unicode="&#xbb;" horiz-adv-x="759" d="M-10 993l110 76q66 -94 117 -160q109 -147 135 -184v2q27 -31 28 -44t-20 -42q-121 -164 -129 -176q-109 -150 -135 -189l-104 89q43 59 133 178q18 25 50 68.5t50 68.5zM221 993l109 76q43 -57 104 -143q96 -123 150 -201q23 -29 23.5 -41t-19.5 -43h2q-6 -10 -27.5 -39 t-32.5 -45q-106 -143 -202 -281l-103 89q37 53 109 151q80 106 119 164z" />
<glyph unicode="&#xbf;" horiz-adv-x="817" d="M-12 313v117q0 190 180 285l-2 -2q96 63 96 166v266h129v-266q0 -182 -155 -279q-117 -63 -117 -172v-115q0 -78 57 -134t135 -56t134.5 66.5t58.5 164.5l133 -16q-8 -147 -103.5 -246.5t-222.5 -99.5q-133 0 -228 92t-95 229zM248 1346q0 35 23.5 59.5t56 24.5t56.5 -25 t24 -59q0 -37 -25 -63t-55.5 -26t-55 26t-24.5 63z" />
<glyph unicode="&#xc0;" horiz-adv-x="1005" d="M-70 0l344 1350q14 47 49 73.5t72 26.5q35 0 70 -27.5t47 -70.5l350 -1352h-145l-131 504h-385q-115 -444 -129 -504h-142zM172 1743l139 84l168 -309l-139 -2zM231 635h322l-154 670zM395 1323l4 -18q0 6 2 10z" />
<glyph unicode="&#xc1;" horiz-adv-x="993" d="M-70 0h142q14 59 129 504h385l131 -504h145l-350 1352q-12 43 -47 70.5t-70 27.5q-37 0 -71.5 -26.5t-49.5 -73.5zM231 635l168 670l154 -670h-322zM330 1518l172 284l149 -65l-180 -219h-141zM395 1323l4 -18q0 6 2 10z" />
<glyph unicode="&#xc2;" horiz-adv-x="1005" d="M-70 0l344 1350q14 47 49 73.5t72 26.5q35 0 70 -27.5t47 -70.5l350 -1352h-145l-131 504h-385q-115 -444 -129 -504h-142zM150 1583l202 150q43 33 90 0l33 -25q25 -18 39 -29q78 -51 123 -94l-84 -96l-156 121q-12 -8 -40.5 -31t-41.5 -31q-12 -10 -29 -23l-35 -27 q-17 -13 -24 -17zM231 635h322l-154 670zM395 1323l4 -18q0 6 2 10z" />
<glyph unicode="&#xc3;" horiz-adv-x="1005" d="M-70 0l344 1350q14 47 49 73.5t72 26.5q35 0 70 -27.5t47 -70.5l350 -1352h-145l-131 504h-385q-115 -444 -129 -504h-142zM182 1614l92 65l43 -43v2q16 -12 27 -4l8 8q55 51 105 52q72 0 155 -115l-92 -70q-25 25 -43 50q-20 31 -45 6q-57 -53 -100 -54q-74 1 -150 103z M231 635h322l-154 670zM395 1323l4 -18q0 6 2 10z" />
<glyph unicode="&#xc4;" horiz-adv-x="1005" d="M-70 0h142q14 59 129 504h385l131 -504h145l-350 1352q-12 43 -47 70.5t-70 27.5q-37 0 -71.5 -26.5t-49.5 -73.5zM188 1599q0 39 24 63t60 24q35 0 58.5 -27t23.5 -60q0 -37 -22.5 -58t-59 -21t-60.5 21t-24 58zM231 635l168 670l154 -670h-322zM395 1323l4 -18 q0 6 2 10zM436 1599q0 39 23.5 63t62.5 24q35 0 57.5 -27t22.5 -60q0 -37 -22.5 -58t-57.5 -21q-39 0 -62.5 21t-23.5 58z" />
<glyph unicode="&#xc5;" horiz-adv-x="1005" d="M-63 20l344 1350q14 47 49 73.5t71 26.5q35 0 70 -27.5t47 -70.5l350 -1352h-145l-131 504h-385q-115 -444 -129 -504h-141zM188 1577q0 88 59.5 149.5t147.5 61.5q86 0 149.5 -62.5t63.5 -148.5q0 -84 -63.5 -145.5t-149.5 -61.5q-88 0 -147.5 61.5t-59.5 145.5z M238 655h321l-153 670zM317 1577q0 -33 24 -56.5t54 -23.5q35 0 58.5 23.5t23.5 56.5q0 35 -23.5 58.5t-58.5 23.5q-31 0 -54.5 -23.5t-23.5 -58.5zM401 1343l5 -18q0 6 2 10z" />
<glyph unicode="&#xc6;" horiz-adv-x="1492" d="M-33 10q100 408 154 604v-2q127 496 188 736q31 102 121 102q86 0 117 -102l145 -627q0 68 -7 287t-7 309q0 49 33.5 83t79.5 34h509v-134l-491 -4v-495h475v-133h-475q0 -102 2 -148v-92q0 -16 1 -48t1 -48q2 -96 59.5 -147.5t128.5 -51.5h299v-133h-299q-125 0 -219 86 t-102 229v-4q-14 45 -25.5 86t-16.5 60.5t-9 27.5v-2q-8 16 -8 19h-388q-127 -496 -133 -520zM266 635h322q-20 86 -160 618q-12 -45 -83 -319t-79 -299z" />
<glyph unicode="&#xc7;" horiz-adv-x="937" d="M0 328v782q0 162 109.5 251t265.5 89q150 0 263.5 -100.5t115.5 -276.5h-138q0 113 -70.5 178.5t-168.5 65.5q-100 0 -172 -55.5t-72 -151.5v-782q2 -96 74 -151.5t170 -55.5t168.5 65.5t70.5 178.5h138q-2 -176 -115 -276.5t-262 -100.5q-156 0 -266.5 89t-110.5 251z M303 66l131 18q-4 -86 36 -145.5t101 -59.5q25 0 84 25l15 -148q-61 -14 -99 -14q-121 0 -204.5 94.5t-63.5 229.5z" />
<glyph unicode="&#xc8;" horiz-adv-x="815" d="M2 332v985q0 49 36 83t83 34h510v-134l-496 -4v-495h473v-133h-473v-336q0 -80 57.5 -139.5t137.5 -59.5h301v-133h-301q-133 0 -230.5 99.5t-97.5 232.5zM129 1729l139 83l168 -309l-139 -2z" />
<glyph unicode="&#xc9;" horiz-adv-x="815" d="M2 332q0 -133 97.5 -232.5t230.5 -99.5h301v133h-301q-80 0 -137.5 59.5t-57.5 139.5v336h473v133h-473v495l496 4v134h-510q-47 0 -83 -34t-36 -83v-985zM264 1501l172 285l150 -66l-180 -219h-142z" />
<glyph unicode="&#xca;" horiz-adv-x="800" d="M2 332v985q0 49 36 83t83 34h510v-134l-496 -4v-495h473v-133h-473v-336q0 -80 57.5 -139.5t137.5 -59.5h301v-133h-301q-133 0 -230.5 99.5t-97.5 232.5zM82 1599l203 150q43 33 90 0l33 -25q25 -18 38 -28q78 -51 123 -94l-84 -97l-155 121q-14 -8 -42 -30.5t-40 -30.5 q-12 -10 -30 -24l-35 -27q-17 -13 -23 -17z" />
<glyph unicode="&#xcb;" horiz-adv-x="796" d="M2 332q0 -133 97.5 -232.5t230.5 -99.5h301v133h-301q-80 0 -137.5 59.5t-57.5 139.5v336h473v133h-473v495l496 4v134h-510q-47 0 -83 -34t-36 -83v-985zM125 1612q0 39 23.5 62.5t60.5 23.5q35 0 58.5 -26.5t23.5 -59.5q0 -37 -22.5 -58.5t-59.5 -21.5t-60.5 21.5 t-23.5 58.5zM373 1612q0 39 23.5 62.5t62.5 23.5q35 0 57.5 -26.5t22.5 -59.5q0 -37 -22.5 -58.5t-57.5 -21.5q-39 0 -62.5 21.5t-23.5 58.5z" />
<glyph unicode="&#xcc;" horiz-adv-x="309" d="M-154 1741l140 84l168 -309l-140 -3zM4 0v1434h135v-1434h-135z" />
<glyph unicode="&#xcd;" horiz-adv-x="296" d="M-27 1505l172 285l150 -66l-180 -219h-142zM-8 0h135v1434h-135v-1434z" />
<glyph unicode="&#xce;" horiz-adv-x="296" d="M-197 1599l203 150q43 33 90 0l33 -25q25 -18 39 -28q78 -51 123 -94l-84 -97l-156 121q-14 -8 -41.5 -30.5t-40.5 -30.5q-12 -10 -29 -24l-35 -27q-17 -13 -24 -17zM-8 0v1434h135v-1434h-135z" />
<glyph unicode="&#xcf;" horiz-adv-x="296" d="M-154 1599q0 39 24 63t60 24q35 0 58.5 -27t23.5 -60q0 -37 -22.5 -58t-59 -21t-60.5 21t-24 58zM-8 0h135v1434h-135v-1434zM94 1599q0 39 23.5 63t62.5 24q35 0 57.5 -27t22.5 -60q0 -37 -22.5 -58t-57.5 -21q-39 0 -62.5 21t-23.5 58z" />
<glyph unicode="&#xd0;" horiz-adv-x="952" d="M-68 649v133h412v-133h-412zM-2 117v1202q0 49 35 82t82 33h319q129 0 227.5 -98.5t98.5 -231.5v-776q0 -139 -97.5 -233.5t-228.5 -94.5h-319q-51 0 -84 35t-33 82zM115 1300h18v19zM133 1300l2 -1167h299q80 0 136.5 57.5t56.5 137.5v774q0 80 -56.5 139t-136.5 59 h-301z" />
<glyph unicode="&#xd1;" horiz-adv-x="942" d="M0 0v1335q-2 47 27.5 76t70.5 29q33 0 59.5 -19.5t35.5 -52.5l-3 4l469 -1235l-30 191l-11 1106h134v-1334q0 -47 -28 -73.5t-65 -26.5q-63 0 -90 63q-68 168 -146.5 373t-175.5 466t-143 376l27 -211v-1067h-131zM160 1622l98 74q12 -12 28.5 -29.5t18.5 -19.5v2 q8 -8 11 -9.5t9.5 0.5t16.5 13q55 59 113 59q74 0 168 -131l-101 -78q-25 25 -45 56q-14 18 -21 21t-28 -15q-63 -59 -109 -60q-79 0 -159 117z" />
<glyph unicode="&#xd2;" horiz-adv-x="944" d="M0 326v784q0 158 111.5 247t265 89t265.5 -89t112 -247v-784q0 -160 -112 -249t-265.5 -89t-265 89t-111.5 249zM131 326q0 -96 72.5 -150.5t173.5 -54.5q98 0 171 54t73 151v784q0 94 -73 148.5t-171 54.5q-100 0 -173 -54.5t-73 -148.5v-784zM164 1733l139 84l168 -310 l-139 -2z" />
<glyph unicode="&#xd3;" horiz-adv-x="944" d="M0 326q0 -160 111.5 -249t265 -89t265.5 89t112 249v784q0 158 -112 247t-265.5 89t-265 -89t-111.5 -247v-784zM131 326v784q0 94 72.5 148.5t173.5 54.5q98 0 171 -54.5t73 -148.5v-784q0 -96 -73 -150.5t-171 -54.5q-100 0 -173 54.5t-73 150.5zM303 1499l172 285 l150 -66l-181 -219h-141z" />
<glyph unicode="&#xd4;" horiz-adv-x="944" d="M0 326v784q0 158 111.5 247t265 89t265.5 -89t112 -247v-784q0 -160 -112 -249t-265.5 -89t-265 89t-111.5 249zM127 1602l203 149q43 33 90 0l33 -25q25 -18 39 -28q78 -51 122 -94l-84 -97l-155 121q-14 -8 -42 -30.5t-40 -30.5q-12 -10 -30 -24l-35 -26 q-17 -13 -23 -18zM131 326q0 -96 72.5 -150.5t173.5 -54.5q98 0 171 54t73 151v784q0 94 -73 148.5t-171 54.5q-100 0 -173 -54.5t-73 -148.5v-784z" />
<glyph unicode="&#xd5;" horiz-adv-x="944" d="M0 326v784q0 158 111.5 247t265 89t265.5 -89t112 -247v-784q0 -160 -112 -249t-265.5 -89t-265 89t-111.5 249zM131 326q0 -96 72.5 -150.5t173.5 -54.5q98 0 171 54t73 151v784q0 94 -73 148.5t-171 54.5q-100 0 -173 -54.5t-73 -148.5v-784zM139 1634l99 74 q12 -12 28.5 -29.5t18.5 -19.5v2q8 -8 11 -9t9 1t17 12q55 59 112 59q74 0 168 -131l-100 -77q-25 25 -45 55q-14 18 -21.5 21t-27.5 -15q-63 -59 -109 -59q-80 -1 -160 116z" />
<glyph unicode="&#xd6;" horiz-adv-x="944" d="M0 326q0 -160 111.5 -249t265 -89t265.5 89t112 249v784q0 158 -112 247t-265.5 89t-265 -89t-111.5 -247v-784zM131 326v784q0 94 72.5 148.5t173.5 54.5q98 0 171 -54.5t73 -148.5v-784q0 -96 -73 -150.5t-171 -54.5q-100 0 -173 54.5t-73 150.5zM168 1612 q0 39 23.5 62.5t60.5 23.5q35 0 58.5 -26.5t23.5 -59.5q0 -37 -22.5 -58.5t-59.5 -21.5t-60.5 21.5t-23.5 58.5zM416 1612q0 39 23.5 62.5t62.5 23.5q35 0 57.5 -26.5t22.5 -59.5q0 -37 -22.5 -58.5t-57.5 -21.5q-39 0 -62.5 21.5t-23.5 58.5z" />
<glyph unicode="&#xd8;" horiz-adv-x="944" d="M0 326v784q0 158 111.5 247t265 89t265.5 -89t112 -247v-784q0 -160 -112 -249t-265.5 -89t-265 89t-111.5 249zM68 -78l495 1536h142l-502 -1536h-135zM131 326q0 -96 72.5 -150.5t173.5 -54.5q98 0 171 54t73 151v784q0 94 -73 148.5t-171 54.5q-100 0 -173 -54.5 t-73 -148.5v-784z" />
<glyph unicode="&#xd9;" horiz-adv-x="944" d="M0 322v1112h131q0 -995 -2 -1112q6 -92 81 -148.5t169 -56.5q98 0 170 54t72 151v1112h133v-1112q0 -160 -112 -249t-265.5 -89t-265 89t-111.5 249zM184 1737l140 84l168 -310l-140 -2z" />
<glyph unicode="&#xda;" horiz-adv-x="944" d="M0 322q0 -160 111.5 -249t265 -89t265.5 89t112 249v1112h-133v-1112q0 -96 -72 -150.5t-170 -54.5q-94 0 -169 56t-81 149q2 117 2 1112h-131v-1112zM279 1501l172 285l149 -66l-180 -219h-141z" />
<glyph unicode="&#xdb;" horiz-adv-x="944" d="M0 322v1112h131q0 -995 -2 -1112q6 -92 81 -148.5t169 -56.5q98 0 170 54t72 151v1112h133v-1112q0 -160 -112 -249t-265.5 -89t-265 89t-111.5 249zM152 1604l202 149q43 33 90 0l33 -24q25 -18 39 -29q78 -51 123 -94l-84 -97l-156 121q-14 -8 -41.5 -30.5t-40.5 -30.5 q-12 -10 -29 -24l-35 -26q-17 -13 -24 -18z" />
<glyph unicode="&#xdc;" horiz-adv-x="944" d="M0 322q0 -160 111.5 -249t265 -89t265.5 89t112 249v1112h-133v-1112q0 -96 -72 -150.5t-170 -54.5q-94 0 -169 56t-81 149q2 117 2 1112h-131v-1112zM168 1604q0 39 23.5 62.5t60.5 23.5q35 0 58.5 -27t23.5 -59q0 -37 -22.5 -58.5t-59.5 -21.5t-60.5 21.5t-23.5 58.5z M416 1604q0 39 23.5 62.5t62.5 23.5q35 0 57.5 -27t22.5 -59q0 -37 -22.5 -58.5t-57.5 -21.5q-39 0 -62.5 21.5t-23.5 58.5z" />
<glyph unicode="&#xdd;" horiz-adv-x="899" d="M-43 1434q72 -176 205 -484q92 -213 139 -327v-623h135v621l346 813h-147q-94 -217 -232 -564l-34 -141l-35 139q-117 299 -234 566h-143zM301 1497l172 285l150 -66l-181 -219h-141z" />
<glyph unicode="&#xde;" horiz-adv-x="884" d="M2 2v1430h133v-265h240q137 0 233.5 -98t96.5 -233v-220q0 -133 -96.5 -230t-233.5 -97h-240v-285zM135 422h240q82 0 139 57.5t57 136.5v220q0 82 -57 140t-139 58h-240v-612z" />
<glyph unicode="&#xdf;" horiz-adv-x="792" d="M4 4v1088q0 135 92 220t234 83q135 -2 223 -90t88 -226v-92q0 -162 -117 -256q131 -94 131 -254v-153q0 -139 -94 -234.5t-233 -95.5h-152v131h152q82 0 139 57.5t57 139.5v155q0 78 -57 133.5t-137 55.5h-160v131h158q80 0 132 54t52 132v96q0 80 -52 133.5t-130 51.5 q-84 0 -139.5 -45t-55.5 -125v-1090h-131z" />
<glyph unicode="&#xe0;" horiz-adv-x="829" d="M-2 307v74q0 127 93 221t222 94q59 0 114.5 -27.5t76.5 -84.5l-4 92q0 76 -54.5 130t-132.5 54q-74 0 -153 -76l-76 113q106 96 229 96q129 0 223.5 -93t94.5 -224v-676h-115l-12 90q-53 -102 -191 -102q-129 0 -222 95t-93 224zM127 1255l137 74l164 -270l-137 -2z M129 307q0 -78 54.5 -133t129.5 -55q74 0 130.5 37t56.5 100v156q0 72 -53.5 112.5t-133.5 40.5q-76 0 -130 -53t-54 -131v-74z" />
<glyph unicode="&#xe1;" d="M0 307v74q0 127 93 221t222 94q59 0 114.5 -27.5t76.5 -84.5l-4 92q0 76 -54.5 130t-132.5 54q-74 0 -153 -76l-76 113q106 96 229 96q129 0 223.5 -93t94.5 -224v-676h-115l-12 90q-53 -102 -191 -102q-129 0 -222 95t-93 224zM131 307q0 -78 54.5 -133t129.5 -55 q74 0 130.5 37t56.5 100v156q0 72 -53.5 112.5t-133.5 40.5q-78 0 -131 -53t-53 -131v-74zM262 1061l152 254l129 -60l-156 -194h-125z" />
<glyph unicode="&#xe2;" horiz-adv-x="833" d="M2 307v74q0 127 93 221t222 94q59 0 114.5 -27.5t76.5 -84.5l-4 92q0 76 -54.5 130t-132.5 54q-74 0 -153 -76l-76 113q106 96 229 96q129 0 223.5 -93t94.5 -224v-676h-115l-12 90q-53 -102 -191 -102q-129 0 -222 95t-93 224zM104 1133l191 141q41 33 86 0 q8 -6 30.5 -22.5t37.5 -26.5q80 -57 116 -90l-80 -91l-147 115q-10 -8 -78 -59q-25 -20 -82 -64zM133 307q0 -78 54.5 -133t129.5 -55q74 0 130.5 37t56.5 100v156q0 72 -53.5 112.5t-133.5 40.5q-76 0 -130 -53t-54 -131v-74z" />
<glyph unicode="&#xe3;" d="M0 307v74q0 127 93 221t222 94q59 0 114.5 -27.5t76.5 -84.5l-4 92q0 76 -54.5 130t-132.5 54q-74 0 -153 -76l-76 113q106 96 229 96q129 0 223.5 -93t94.5 -224v-676h-115l-12 90q-53 -102 -191 -102q-129 0 -222 95t-93 224zM119 1171l90 68q10 -10 23.5 -25.5 t19.5 -19.5v2q8 -10 14 -9t19 13q53 53 102 53q68 0 154 -118l-92 -72q-10 10 -41 51q-20 31 -46 6q-55 -55 -98 -55q-73 0 -145 106zM131 307q0 -78 54.5 -133t129.5 -55q74 0 130.5 37t56.5 100v156q0 72 -53.5 112.5t-133.5 40.5q-78 0 -131 -53t-53 -131v-74z" />
<glyph unicode="&#xe4;" d="M0 307v74q0 127 93 221t222 94q59 0 114.5 -27.5t76.5 -84.5l-4 92q0 76 -54.5 130t-132.5 54q-74 0 -153 -76l-76 113q106 96 229 96q129 0 223.5 -93t94.5 -224v-676h-115l-12 90q-53 -102 -191 -102q-129 0 -222 95t-93 224zM131 307q0 -78 54.5 -133t129.5 -55 q74 0 130.5 37t56.5 100v156q0 72 -53.5 112.5t-133.5 40.5q-78 0 -131 -53t-53 -131v-74zM133 1139q0 39 23.5 62.5t60.5 23.5q35 0 58.5 -27t23.5 -59q0 -37 -22.5 -58.5t-59.5 -21.5t-60.5 21.5t-23.5 58.5zM381 1139q0 39 23.5 62.5t62.5 23.5q35 0 57.5 -27t22.5 -59 q0 -37 -22.5 -58.5t-57.5 -21.5q-39 0 -62.5 21.5t-23.5 58.5z" />
<glyph unicode="&#xe5;" d="M0 307v74q0 127 93 221t222 94q59 0 114.5 -27.5t76.5 -84.5l-4 92q0 76 -54.5 130t-132.5 54q-74 0 -153 -76l-76 113q106 96 229 96q129 0 223.5 -93t94.5 -224v-676h-115l-12 90q-53 -102 -191 -102q-129 0 -222 95t-93 224zM131 307q0 -78 54.5 -133t129.5 -55 q74 0 130.5 37t56.5 100v156q0 72 -53.5 112.5t-133.5 40.5q-78 0 -131 -53t-53 -131v-74zM135 1079q0 84 59.5 145.5t145.5 61.5q84 0 147.5 -62.5t63.5 -144.5t-63.5 -143.5t-147.5 -61.5q-86 0 -145.5 60.5t-59.5 144.5zM264 1079.5q0 -32.5 22.5 -56.5t53.5 -24 q35 0 58.5 24t23.5 56.5t-23.5 56t-58.5 23.5q-31 0 -53.5 -23.5t-22.5 -56z" />
<glyph unicode="&#xe6;" horiz-adv-x="1355" d="M2 307v74q0 127 93 221t222 94q127 0 187 -67v47q0 76 -55.5 130t-131.5 54q-66 0 -153 -76l-78 113q111 96 231 96q80 0 153 -46t97 -140q23 92 94.5 140t157.5 48q129 0 222.5 -93t93.5 -224q0 -135 -93.5 -226.5t-222.5 -91.5h-186v-61q4 -72 59.5 -124t126.5 -52 q111 0 180 96l109 -76q-104 -152 -289 -151q-55 0 -108.5 28.5t-77.5 79.5l-19 -102h-90l-20 100q-25 -53 -81 -81.5t-106 -30.5q-129 0 -222 96t-93 225zM131 307q0 -78 54.5 -133t131.5 -55q74 2 129.5 38t55.5 99v156q0 72 -52.5 111.5t-132.5 41.5q-78 0 -132 -54 t-54 -130v-74zM633 489h186q78 0 132.5 55.5t54.5 133.5q0 76 -54.5 130t-132.5 54q-74 0 -128 -53t-58 -129v-191z" />
<glyph unicode="&#xe7;" d="M0 307v371q0 133 94 225t225 92q127 0 220.5 -103.5t95.5 -252.5h-131q0 94 -53.5 158.5t-131 64.5t-133 -54t-55.5 -130v-371q0 -78 55.5 -132t132.5 -54q76 0 130.5 66.5t54.5 158.5h131q-2 -125 -70.5 -220t-171.5 -124q18 -33 58.5 -48t83.5 -1l59 -115 q-78 -31 -123 -31q-84 0 -145.5 50.5t-69.5 138.5q-111 23 -183.5 109.5t-72.5 201.5z" />
<glyph unicode="&#xe8;" horiz-adv-x="792" d="M0 307v369q0 129 92 224t225 95q129 0 222.5 -93t93.5 -224q0 -133 -92 -217t-224 -84h-186v-70q0 -76 54.5 -130t131.5 -54q111 0 181 96l108 -78q-104 -150 -289 -149q-131 0 -224 91t-93 224zM113 1255l125 76l151 -278l-125 -2zM131 489h186q76 0 130.5 55.5 t54.5 133.5q0 76 -54.5 130t-130.5 54q-78 0 -132 -55t-54 -133v-185z" />
<glyph unicode="&#xe9;" horiz-adv-x="774" d="M-16 307v369q0 129 92 224t225 95q129 0 222 -93t93 -224q0 -133 -92 -217t-223 -84h-186v-70q0 -76 54 -130t132 -54q111 0 180 96l109 -78q-104 -150 -289 -149q-131 0 -224 91t-93 224zM115 489h186q76 0 130 55.5t54 133.5q0 76 -54 130t-130 54q-78 0 -132 -55 t-54 -133v-185zM219 1053l154 254l133 -60l-162 -194h-125z" />
<glyph unicode="&#xea;" horiz-adv-x="792" d="M2 307v369q0 129 92 224t225 95q129 0 222.5 -93t93.5 -224q0 -133 -92 -217t-224 -84h-186v-70q0 -76 54.5 -130t131.5 -54q111 0 181 96l108 -78q-104 -150 -289 -149q-131 0 -224 91t-93 224zM115 1120l178 133q37 27 78 0q6 -6 28.5 -21t34.5 -26q74 -49 109 -84 l-74 -84l-137 107q-12 -8 -39 -28.5t-33 -26.5q-70 -53 -78 -60zM133 489h186q76 0 130.5 55.5t54.5 133.5q0 76 -53.5 130t-131 54t-132 -55t-54.5 -133v-185z" />
<glyph unicode="&#xeb;" horiz-adv-x="800" d="M2 307v369q0 129 92 224t225 95q129 0 222.5 -93t93.5 -224q0 -133 -92 -217t-224 -84h-186v-70q0 -76 54.5 -130t131.5 -54q111 0 181 96l108 -78q-104 -150 -289 -149q-131 0 -224 91t-93 224zM133 489h186q76 0 130.5 55.5t54.5 133.5q0 76 -53.5 130t-131 54 t-132 -55t-54.5 -133v-185zM135 1128q0 39 23.5 62.5t60.5 23.5q35 0 58.5 -26.5t23.5 -59.5q0 -37 -22.5 -58t-59.5 -21t-60.5 21t-23.5 58zM383 1128q0 39 23.5 62.5t62.5 23.5q35 0 57.5 -26.5t22.5 -59.5q0 -37 -22.5 -58t-57.5 -21q-39 0 -62.5 21t-23.5 58z" />
<glyph unicode="&#xec;" horiz-adv-x="315" d="M-121 1282l129 80l152 -295l-127 -2zM25 0v985h131v-985h-131z" />
<glyph unicode="&#xed;" horiz-adv-x="307" d="M23 0h131v985h-131v-985zM29 1069l149 258l133 -59l-159 -199h-123z" />
<glyph unicode="&#xee;" horiz-adv-x="311" d="M-164 1141l203 149q43 33 90 0l33 -24q25 -18 39 -29q78 -51 123 -94l-84 -96l-156 120q-14 -8 -42 -30.5t-40 -30.5q-12 -10 -30 -24l-34 -26q-17 -13 -24 -18zM23 0v985h129v-985h-129z" />
<glyph unicode="&#xef;" horiz-adv-x="311" d="M-102 1194q0 39 23.5 62.5t60.5 23.5q35 0 58 -26.5t23 -59.5q0 -37 -22.5 -58.5t-59 -21.5t-60 21.5t-23.5 58.5zM23 0h129v985h-129v-985zM145 1194q0 39 24 62.5t62 23.5q35 0 57.5 -26.5t22.5 -59.5q0 -37 -22.5 -58.5t-57.5 -21.5q-39 0 -62.5 21.5t-23.5 58.5z" />
<glyph unicode="&#xf0;" horiz-adv-x="919" d="M-8 815v264q0 156 107.5 241t255 85t255 -85t107.5 -241v-772q0 -156 -104.5 -238.5t-254.5 -82.5q-180 0 -307 131l103 86q82 -86 204 -86q94 0 162 50t68 140v320q-37 -133 -234 -133q-154 0 -258 81.5t-104 239.5zM119 815q0 -90 68.5 -140t166.5 -50q96 0 165 51 t69 145v258q0 90 -69.5 142.5t-162.5 52.5q-94 0 -164.5 -51.5t-72.5 -143.5v-264z" />
<glyph unicode="&#xf1;" horiz-adv-x="833" d="M2 0v985h111l16 -98q27 53 82 81.5t108 28.5q127 0 222.5 -97t95.5 -222v-678h-131v678q0 76 -55.5 131t-133.5 55q-76 0 -130 -55t-54 -131v-678h-131zM104 1171l93 68q12 -10 26.5 -26.5t16.5 -18.5v2q10 -10 16 -9t18 13q53 53 107 53q70 0 158 -118l-95 -70 q-18 18 -43 49q-12 18 -19 20.5t-26 -14.5q-59 -53 -102 -53q-76 0 -150 104z" />
<glyph unicode="&#xf2;" horiz-adv-x="845" d="M18 307v373q0 152 96.5 234.5t229.5 82.5t229.5 -83t96.5 -234v-373q0 -152 -97.5 -234.5t-228.5 -82.5q-133 0 -229.5 82.5t-96.5 234.5zM111 1241l131 68l157 -248l-131 -2zM150 307q0 -86 58 -135t136 -49q80 0 137.5 48t57.5 136v373q0 86 -57.5 136t-137.5 50 q-78 0 -136 -50t-58 -136v-373z" />
<glyph unicode="&#xf3;" horiz-adv-x="845" d="M18 307v373q0 152 96.5 234.5t229.5 82.5t229.5 -83t96.5 -234v-373q0 -152 -97.5 -234.5t-228.5 -82.5q-133 0 -229.5 82.5t-96.5 234.5zM150 307q0 -86 58 -135t136 -49q80 0 137.5 48t57.5 136v373q0 86 -57.5 136t-137.5 50q-78 0 -136 -50t-58 -136v-373zM258 1063 l174 246l152 -56l-183 -190h-143z" />
<glyph unicode="&#xf4;" horiz-adv-x="847" d="M20 307v373q0 152 96.5 234.5t229.5 82.5t229.5 -83t96.5 -234v-373q0 -152 -97.5 -234.5t-228.5 -82.5q-133 0 -229.5 82.5t-96.5 234.5zM86 1159l203 150q43 33 90 0l33 -25q25 -18 39 -29q78 -51 122 -94l-84 -96l-155 121q-14 -8 -42 -30.5t-40 -31.5 q-12 -10 -30 -23l-35 -27q-17 -13 -23 -17zM152 307q0 -86 58 -135t136 -49q80 0 137.5 48t57.5 136v373q0 86 -57.5 136t-137.5 50q-78 0 -136 -50t-58 -136v-373z" />
<glyph unicode="&#xf5;" horiz-adv-x="845" d="M18 307v373q0 152 96.5 234.5t229.5 82.5t229.5 -83t96.5 -234v-373q0 -152 -97.5 -234.5t-228.5 -82.5q-133 0 -229.5 82.5t-96.5 234.5zM82 1186l98 74q12 -12 28.5 -30t18.5 -20v2q8 -8 11.5 -9t9.5 1t16 13q55 59 113 59q74 0 168 -131l-101 -78q-25 25 -45 55 q-14 18 -21 21.5t-28 -15.5q-63 -59 -108 -59q-80 0 -160 117zM150 307q0 -86 58 -135t136 -49q80 0 137.5 48t57.5 136v373q0 86 -57.5 136t-137.5 50q-78 0 -136 -50t-58 -136v-373z" />
<glyph unicode="&#xf6;" horiz-adv-x="849" d="M23 307v373q0 152 96 234.5t229 82.5t229.5 -83t96.5 -234v-373q0 -152 -97.5 -234.5t-228.5 -82.5q-133 0 -229 82.5t-96 234.5zM121 1155q0 39 23.5 62.5t60.5 23.5q35 0 58.5 -26.5t23.5 -59.5q0 -37 -22.5 -58.5t-59.5 -21.5t-60.5 21.5t-23.5 58.5zM154 307 q0 -86 58 -135t136 -49q80 0 137.5 48t57.5 136v373q0 86 -57.5 136t-137.5 50q-78 0 -136 -50t-58 -136v-373zM369 1155q0 39 23.5 62.5t62.5 23.5q35 0 57.5 -26.5t22.5 -59.5q0 -37 -23 -58.5t-57 -21.5q-39 0 -62.5 21.5t-23.5 58.5z" />
<glyph unicode="&#xf8;" horiz-adv-x="843" d="M4 328v368q0 152 96.5 236t229.5 84q55 0 102 -12q2 8 7 25.5t10 25.5q2 2 6 16t4 19l123 -31l-37 -115q111 -92 110 -248v-368q0 -152 -97 -235t-228 -83q-59 0 -99 10q-4 -14 -14 -41.5t-17 -48t-12 -32.5l-116 47l45 133q-113 92 -113 250zM135 328q0 -70 29 -111 q57 164 86 244l74 221l65 197q-37 8 -59 8q-78 0 -136.5 -51.5t-58.5 -139.5v-368zM270 150q37 -8 60 -9q80 0 137 49.5t57 137.5v368q0 53 -26 107q-4 -10 -24.5 -68.5t-31.5 -89.5q-39 -111 -73 -211z" />
<glyph unicode="&#xf9;" horiz-adv-x="819" d="M2 305v678h131v-678q0 -78 52.5 -131t128 -53t129 53t53.5 131v678h129v-678q0 -131 -88 -223t-224 -92q-131 0 -221 93t-90 222zM127 1245l127 76l152 -279l-127 -2z" />
<glyph unicode="&#xfa;" horiz-adv-x="817" d="M0 305q0 -129 90 -222t221 -93q135 0 223.5 92t88.5 223v678h-129v-678q0 -78 -53.5 -131t-129 -53t-128 53t-52.5 131v678h-131v-678zM244 1040l143 236l123 -53l-150 -183h-116z" />
<glyph unicode="&#xfb;" horiz-adv-x="817" d="M0 305v678h131v-678q0 -78 52.5 -131t128 -53t129 53t53.5 131v678h129v-678q0 -131 -88.5 -223t-223.5 -92q-131 0 -221 93t-90 222zM111 1167l184 138q39 31 82 0l65 -50q76 -53 113 -86l-78 -88l-141 111q-12 -8 -38 -27.5t-38 -27.5q-10 -8 -80 -62z" />
<glyph unicode="&#xfc;" horiz-adv-x="819" d="M2 305q0 -129 90 -222t221 -93q135 0 223.5 92t88.5 223v678h-129v-678q0 -78 -53.5 -131t-129 -53t-128 53t-52.5 131v678h-131v-678zM104 1157q0 39 24 62.5t60 23.5q35 0 58.5 -26.5t23.5 -59.5q0 -37 -22.5 -58.5t-59 -21.5t-60.5 21.5t-24 58.5zM352 1157 q0 39 23.5 62.5t62.5 23.5q35 0 57.5 -26.5t22.5 -59.5q0 -37 -22.5 -58.5t-57.5 -21.5q-39 0 -62.5 21.5t-23.5 58.5z" />
<glyph unicode="&#xfd;" d="M0 301q0 -127 97.5 -218t224.5 -91q51 0 103 23.5t77 80.5v-200q0 -76 -53.5 -129.5t-129.5 -53.5q-80 0 -167 72l-86 -100q55 -45 126.5 -75t126.5 -30q127 0 219.5 91t94.5 225v1087h-131v-713q0 -70 -52.5 -108.5t-127.5 -38.5q-76 -2 -133.5 51t-57.5 127v682h-131 v-682zM193 1071l172 285l149 -66l-180 -219h-141z" />
<glyph unicode="&#xfe;" horiz-adv-x="825" d="M0 -203v1542h133v-270q68 74 180 74q129 0 223.5 -96.5t94.5 -223.5v-407q0 -129 -94.5 -223.5t-223.5 -94.5q-115 0 -180 74v-375q0 -10 -66.5 -10t-66.5 10zM133 399q0 -31 29 -80v-2q51 -88 151 -88q76 0 131.5 55.5t55.5 131.5v407q0 78 -55.5 132.5t-131.5 54.5 q-72 0 -126 -51.5t-54 -122.5v-437zM162 313l2 -6z" />
<glyph unicode="&#xff;" d="M0 301q0 -127 97.5 -218t224.5 -91q51 0 103 23.5t77 80.5v-200q0 -76 -53.5 -129.5t-129.5 -53.5q-80 0 -167 72l-86 -100q55 -45 126.5 -75t126.5 -30q127 0 219.5 91t94.5 225v1087h-131v-713q0 -70 -52.5 -108.5t-127.5 -38.5q-76 -2 -133.5 51t-57.5 127v682h-131 v-682zM106 1159q0 35 25 58.5t64 23.5q35 0 59.5 -25.5t24.5 -56.5q0 -35 -24 -55.5t-60 -20.5q-39 0 -64 20.5t-25 55.5zM362 1159q0 35 26 58.5t65 23.5q35 0 58.5 -24.5t23.5 -57.5q0 -35 -23 -55.5t-59 -20.5q-41 0 -66 20.5t-25 55.5z" />
<glyph unicode="&#x152;" horiz-adv-x="1540" d="M0 326v784q0 158 113.5 247t265.5 89q156 0 256 -96q14 43 50 63.5t73 20.5h493v-134l-493 -4v-495h473v-133h-473v-336q0 -80 57 -139.5t135 -59.5h301v-133h-301q-78 0 -154.5 53t-101.5 137q-33 -94 -124 -147t-191 -53q-152 0 -265.5 89t-113.5 247zM137 326 q0 -96 72 -150.5t170 -54.5q100 0 174 54t74 151v784q0 94 -74 148.5t-174 54.5q-98 0 -170 -54.5t-72 -148.5v-784z" />
<glyph unicode="&#x153;" horiz-adv-x="1394" d="M14 307v373q0 150 96.5 232.5t227.5 82.5q76 0 147.5 -40t112.5 -111q39 72 105.5 111.5t144.5 39.5q129 0 222 -93t93 -224q0 -135 -93 -226.5t-222 -91.5h-186v-53q0 -76 54 -130t132 -54q109 0 182 96l109 -78q-106 -150 -291 -149q-76 0 -145.5 40t-106.5 107 q-43 -68 -113.5 -106.5t-146.5 -38.5q-131 0 -226.5 81.5t-95.5 231.5zM143 307q0 -88 57.5 -136t137.5 -48q78 0 136 49t58 135v373q0 86 -58 136t-136 50q-80 0 -137.5 -50t-57.5 -136v-373zM662 489h186q78 0 132 55.5t54 133.5q0 76 -54 130t-132 54t-132 -55t-54 -133 v-185z" />
<glyph unicode="&#x178;" horiz-adv-x="862" d="M-80 1434q72 -176 205 -484q92 -213 139 -327v-623h135v621l346 813h-147q-94 -217 -231 -564l-35 -141l-35 139q-117 299 -234 566h-143zM117 1581q0 39 23.5 62.5t60.5 23.5q35 0 58.5 -26.5t23.5 -59.5q0 -37 -22.5 -58.5t-59.5 -21.5t-60.5 21.5t-23.5 58.5z M365 1581q0 39 23.5 62.5t62.5 23.5q35 0 57 -26.5t22 -59.5q0 -37 -22.5 -58.5t-56.5 -21.5q-39 0 -62.5 21.5t-23.5 58.5z" />
<glyph unicode="&#x2c6;" horiz-adv-x="923" d="M125 1374l203 150q43 33 90 0l33 -25q25 -18 38 -29q78 -51 123 -94l-84 -96l-155 121q-12 -8 -41 -30.5t-41 -31.5q-12 -10 -30 -23l-35 -27q-17 -13 -23 -17z" />
<glyph unicode="&#x2dc;" horiz-adv-x="747" d="M45 1438l98 73q12 -12 28.5 -29.5t18.5 -19.5v2q8 -8 11.5 -9t9.5 1t16 12q55 59 113 60q74 0 168 -131l-100 -78q-25 25 -46 55q-14 18 -21 21.5t-28 -15.5q-63 -59 -108 -59q-80 0 -160 117z" />
<glyph unicode="&#x2000;" horiz-adv-x="913" />
<glyph unicode="&#x2001;" horiz-adv-x="1826" />
<glyph unicode="&#x2002;" horiz-adv-x="913" />
<glyph unicode="&#x2003;" horiz-adv-x="1826" />
<glyph unicode="&#x2004;" horiz-adv-x="608" />
<glyph unicode="&#x2005;" horiz-adv-x="456" />
<glyph unicode="&#x2006;" horiz-adv-x="303" />
<glyph unicode="&#x2007;" horiz-adv-x="303" />
<glyph unicode="&#x2008;" horiz-adv-x="227" />
<glyph unicode="&#x2009;" horiz-adv-x="364" />
<glyph unicode="&#x200a;" horiz-adv-x="100" />
<glyph unicode="&#x2010;" d="M-12 537v131h616v-131h-616z" />
<glyph unicode="&#x2011;" d="M-12 537v131h616v-131h-616z" />
<glyph unicode="&#x2012;" d="M-12 537v131h616v-131h-616z" />
<glyph unicode="&#x2013;" horiz-adv-x="976" d="M10 537v131h742v-131h-742z" />
<glyph unicode="&#x2014;" horiz-adv-x="1714" d="M4 537v131h1417v-131h-1417z" />
<glyph unicode="&#x2018;" horiz-adv-x="372" d="M12 1247l76 205l105 -4l-35 -172q23 -31 22 -53q0 -35 -23.5 -59.5t-60.5 -24.5q-41 0 -66.5 30.5t-17.5 77.5z" />
<glyph unicode="&#x2019;" horiz-adv-x="362" d="M6 1360q0 33 24.5 57.5t61.5 24.5q41 0 67.5 -30t16.5 -75l-57 -245l-88 4l18 200q-43 15 -43 64z" />
<glyph unicode="&#x201a;" horiz-adv-x="331" d="M4 2v449l129 2v-453z" />
<glyph unicode="&#x201c;" horiz-adv-x="542" d="M12 1247l76 205l105 -4l-41 -184q29 -6 28.5 -41t-24 -59.5t-60.5 -24.5q-41 0 -66.5 30.5t-17.5 77.5zM236 1247l75 205l105 -4l-37 -184q25 -6 24.5 -41t-24 -59.5t-60.5 -24.5q-41 0 -66 30.5t-17 77.5z" />
<glyph unicode="&#x201d;" horiz-adv-x="528" d="M2 1141l37 184q-25 6 -25 41t23.5 59.5t60.5 24.5q41 0 66.5 -30.5t17.5 -78.5l-76 -204zM225 1141l41 184q-29 6 -28.5 41t24 59.5t60.5 24.5q41 0 66.5 -30.5t17.5 -78.5l-76 -204z" />
<glyph unicode="&#x201e;" horiz-adv-x="559" d="M20 2v459l132 2v-463zM270 2v459l129 2v-463z" />
<glyph unicode="&#x2022;" horiz-adv-x="845" d="M10 707q0 133 94.5 229t227.5 96q131 0 228 -96t97 -229.5t-96 -227.5t-229 -94t-227.5 93.5t-94.5 228.5zM143 707q0 -78 55.5 -134.5t133.5 -56.5q80 0 137 56.5t57 134.5q0 80 -57 136t-137 56q-78 0 -133.5 -56t-55.5 -136z" />
<glyph unicode="&#x2026;" horiz-adv-x="796" d="M0 84q0 33 23.5 58.5t58.5 25.5t57.5 -25.5t22.5 -58.5q0 -37 -22.5 -59.5t-57.5 -22.5q-37 0 -59.5 22.5t-22.5 59.5zM252 84q0 35 22.5 59.5t59.5 24.5q35 0 57.5 -25.5t22.5 -58.5q0 -37 -22.5 -59.5t-57.5 -22.5q-39 0 -60.5 22.5t-21.5 59.5zM514 84q0 33 23.5 58.5 t58.5 25.5t57.5 -25.5t22.5 -58.5q0 -37 -22.5 -59.5t-57.5 -22.5q-37 0 -59.5 22.5t-22.5 59.5z" />
<glyph unicode="&#x202f;" horiz-adv-x="364" />
<glyph unicode="&#x2039;" horiz-adv-x="618" d="M-2 687q2 13 25 44q111 152 122 168q70 96 131 176l107 -78l-231 -313q70 -92 114 -156q113 -152 117 -157l-104 -90l-263 364v2q-20 27 -18 40z" />
<glyph unicode="&#x203a;" horiz-adv-x="645" d="M35 993l110 76q23 -33 75 -102.5t54 -73.5q94 -127 123 -168q20 -27 22.5 -41t-13.5 -41v-2q-53 -70 -62 -84q-39 -51 -115.5 -159.5t-87.5 -121.5l-104 89q23 33 73 99t58 79q57 76 100 137z" />
<glyph unicode="&#x205f;" horiz-adv-x="456" />
<glyph unicode="&#x2122;" horiz-adv-x="1449" d="M23 1270v131h471v-131h-175v-617h-131v617h-165zM549 647v680q0 37 18.5 57.5t42.5 20.5q37 0 66 -43l207 -449l75 189q109 227 121 252q8 20 28.5 33.5t41.5 13.5q25 0 42 -18.5t17 -55.5v-680h-127l23 490l-98 -224q-35 -72 -60 -120q-23 -51 -64.5 -51.5t-62.5 49.5 v-3q-35 70 -66.5 140.5t-56.5 128.5l-30 71l-9 17l25 -498h-133z" />
<glyph unicode="&#xe000;" horiz-adv-x="980" d="M0 980h980v-980h-980v980z" />
<glyph unicode="&#xfb01;" horiz-adv-x="829" d="M477 1139q0 39 24.5 63.5t59.5 24.5q37 0 63.5 -24.5t26.5 -63.5q0 -37 -26.5 -61.5t-63.5 -24.5q-35 0 -59.5 24.5t-24.5 61.5zM497 0v983h129v-983h-129zM0 0v1094q0 137 107.5 229t257.5 92v-129q-96 0 -166 -56t-70 -136v-336h211v-129h-211v-629h-129z" />
<glyph unicode="&#xfb02;" horiz-adv-x="944" d="M483 324v1079h129v-1079q0 -80 62.5 -137.5t154.5 -57.5v-129q-147 0 -246.5 91.5t-99.5 232.5zM0 0v1094q0 137 107.5 229t257.5 92v-129q-96 0 -166 -56t-70 -136v-336h211v-129h-211v-629h-129z" />
<glyph unicode="&#xfb03;" horiz-adv-x="1312" d="M961 1139q0 39 24.5 63.5t59.5 24.5q37 0 63.5 -24.5t26.5 -63.5q0 -37 -26.5 -61.5t-63.5 -24.5q-35 0 -59.5 24.5t-24.5 61.5zM981 0v983h129v-983h-129zM483 0v1094q0 137 107.5 229t257.5 92v-129q-96 0 -166 -56t-70 -136v-336h211v-129h-211v-629h-129zM0 0v1094 q0 137 107.5 229t257.5 92v-129q-96 0 -166 -56t-70 -136v-336h211v-129h-211v-629h-129z" />
<glyph unicode="&#xfb04;" horiz-adv-x="1427" d="M967 324v1079h129v-1079q0 -80 62.5 -137.5t154.5 -57.5v-129q-147 0 -246.5 91.5t-99.5 232.5zM483 0v1094q0 137 107.5 229t257.5 92v-129q-96 0 -166 -56t-70 -136v-336h211v-129h-211v-629h-129zM0 0v1094q0 137 107.5 229t257.5 92v-129q-96 0 -166 -56t-70 -136 v-336h211v-129h-211v-629h-129z" />
<glyph horiz-adv-x="917" />
</font>
</defs>
</svg>
