<?xml version="1.0" standalone="no"?>
<!DOCTYPE svg PUBLIC "-//W3C//DTD SVG 1.1//EN" "http://www.w3.org/Graphics/SVG/1.1/DTD/svg11.dtd" >
<svg xmlns="http://www.w3.org/2000/svg">
<metadata>
This is a custom SVG webfont generated by Font Squirrel.
Copyright   : Copyright c 2009 by  2009 Designed by Svetoslav Simov  Fontfabric Inc All rights reserved
Foundry     :  2009 Designed by Svetoslav Simov  Fontfabric Inc
</metadata>
<defs>
<font id="ZagBoldRegular" horiz-adv-x="956" >
<font-face units-per-em="2048" ascent="1638" descent="-410" />
<missing-glyph horiz-adv-x="563" />
<glyph unicode=" "  horiz-adv-x="563" />
<glyph unicode="&#x09;" horiz-adv-x="563" />
<glyph unicode="&#xa0;" horiz-adv-x="563" />
<glyph unicode="!" horiz-adv-x="389" d="M-4 92q0 41 30.5 71t67.5 30q43 0 74 -26t31 -69q0 -41 -32 -73.5t-73 -32.5q-37 0 -67.5 29.5t-30.5 70.5zM14 307v1123h166v-1123h-166z" />
<glyph unicode="&#x22;" horiz-adv-x="638" d="M20 913v476h164v-476h-164zM315 913v476h166v-476h-166z" />
<glyph unicode="#" horiz-adv-x="1107" d="M-72 342v164h199q12 66 33.5 175.5t32.5 158.5h-187v159h213q10 57 32.5 190.5t35.5 199.5h174l-70 -390h195q12 63 36.5 194.5t36.5 195.5h168l-67 -390h172v-159h-203v-2l-55 -332h192v-164h-227q-12 -55 -34.5 -170t-33.5 -172h-170l66 342h-195q-41 -219 -61 -342 h-172l59 342h-170zM301 506h203q10 57 31.5 190t23.5 144h-201q-24 -162 -57 -334z" />
<glyph unicode="$" horiz-adv-x="917" d="M4 379h164q0 -106 58.5 -165.5t140.5 -59.5t143 45t61 123v145q0 55 -35.5 90t-75.5 46t-108 24q-86 16 -131 30.5t-103.5 49t-86 96t-27.5 153.5v115q0 135 81 221t206 105v143h164v-149q119 -29 199.5 -126.5t80.5 -250.5h-164q0 102 -60 163.5t-140 61.5 q-82 0 -142.5 -45t-60.5 -123v-115q0 -125 219 -165q80 -16 126 -32t105.5 -50.5t88 -95t28.5 -146.5v-145q0 -139 -80 -224.5t-206 -105.5v-127h-164v127q-127 27 -205 124t-76 263z" />
<glyph unicode="%" horiz-adv-x="1378" d="M-14 1089.5q2 145.5 74.5 245t203.5 97.5q123 -2 200 -107.5t75 -251.5q-4 -143 -77 -239.5t-204 -94.5q-123 0 -198.5 102.5t-73.5 248zM49 -2q260 395 524 823q225 348 361 570h188q-176 -279 -190 -301q-10 -16 -59.5 -92t-71.5 -113q-47 -76 -146 -232 q-397 -623 -419 -655h-187zM145 1092q0 -78 30 -132.5t81 -56.5q55 -2 86 47t35 125q0 76 -31 129t-82 56q-55 2 -85 -46t-34 -122zM676 344q2 147 74.5 246.5t201.5 97.5q123 -2 200 -107.5t75 -250.5q-4 -145 -77 -241.5t-204 -94.5q-121 0 -196.5 104.5t-73.5 245.5z M836 346q-2 -76 28.5 -130t81.5 -56q57 -2 87 45t34 125q2 76 -29.5 131t-85.5 57q-55 2 -84.5 -47t-31.5 -125z" />
<glyph unicode="&#x26;" horiz-adv-x="931" d="M0 330v153q0 143 125 242q-111 94 -111 240v102q0 139 88 229t230 90q166 0 299 -186l-135 -100q-76 121 -164 121q-63 0 -108.5 -45.5t-45.5 -108.5v-102q0 -61 40 -109.5t101 -48.5h175v92h163v-92h131v-166h-131v-307q0 -166 148 -166v-166q-84 0 -155.5 46t-88.5 130 q-14 -78 -89 -130t-142 -52q-143 0 -236.5 95.5t-93.5 238.5zM166 330q0 -72 47 -120t116.5 -48t117 50t47.5 122v307h-177q-61 0 -106 -48t-45 -110v-153z" />
<glyph unicode="'" horiz-adv-x="368" d="M23 895v494h163v-494h-163z" />
<glyph unicode="(" horiz-adv-x="516" d="M12 692q0 248 80 471t232 346l98 -129q-115 -96 -179.5 -286.5t-64.5 -403.5t61.5 -398.5t176.5 -283.5l-94 -137q-150 123 -230 348t-80 473z" />
<glyph unicode=")" horiz-adv-x="524" d="M-82 1380l96 129q152 -123 232 -346t80 -471t-80 -473t-230 -348l-90 137q113 100 174.5 285.5t61.5 396.5q0 215 -63.5 405.5t-180.5 284.5z" />
<glyph unicode="*" horiz-adv-x="913" d="M25 1110l86 145l196 -149l-24 246h161l-32 -252l202 155l84 -149l-223 -88l227 -107l-90 -151l-202 180l36 -270h-163l22 266l-190 -178l-43 71l-45 84l215 105z" />
<glyph unicode="+" horiz-adv-x="802" d="M4 588v164h223v235h164v-235h221v-164h-221v-232h-164v232h-223z" />
<glyph unicode="," horiz-adv-x="329" d="M2 88q0 39 28.5 68.5t71.5 29.5q49 0 80 -43t8 -104l-110 -238l-76 27l23 195q-25 22 -25 65z" />
<glyph unicode="-" horiz-adv-x="860" d="M2 516v166h633v-166h-633z" />
<glyph unicode="." horiz-adv-x="335" d="M2 100q0 47 28.5 77t73.5 30q47 0 77 -30t30 -77t-29.5 -75.5t-77 -28.5t-75 28.5t-27.5 75.5z" />
<glyph unicode="/" horiz-adv-x="839" d="M-41 -76l490 1518h178l-494 -1518h-174z" />
<glyph unicode="0" horiz-adv-x="950" d="M0 324v731q0 158 109.5 243.5t263.5 85.5q150 0 259 -87t109 -242v-731q0 -160 -109.5 -248t-258.5 -88q-154 0 -263.5 87t-109.5 249zM164 324q0 -80 61.5 -125t147.5 -45q82 0 143.5 45t61.5 125v731q0 76 -61.5 120t-143.5 44q-86 0 -147.5 -44.5t-61.5 -119.5v-731z " />
<glyph unicode="1" horiz-adv-x="454" d="M-66 1223v166h238q88 0 88 -93v-1296h-164v1223h-162z" />
<glyph unicode="2" horiz-adv-x="931" d="M2 92v285q0 160 107.5 244t263.5 84q82 0 134 43t52 118v189q0 78 -57.5 122t-136.5 44q-82 0 -140.5 -57.5t-60.5 -164.5h-162q0 182 106.5 284.5t256.5 102.5q145 0 252.5 -87t107.5 -244v-189q-2 -150 -98.5 -237.5t-253.5 -87.5q-86 0 -147.5 -43t-61.5 -121v-213 h532v-164h-606q-57 0 -72.5 18.5t-15.5 73.5z" />
<glyph unicode="3" horiz-adv-x="942" d="M0 377h164q0 -106 62.5 -165.5t146.5 -59.5q82 0 142 45t60 122v166q0 70 -62 122t-151 52v146q88 0 150.5 53t62.5 123v70q0 78 -60 123t-142 45q-86 0 -147.5 -57.5t-61.5 -164.5h-164q0 182 108.5 285.5t262.5 103.5q150 0 259 -88t109 -247v-70q0 -70 -53 -145.5 t-137 -102.5q80 -12 135 -94t55 -154v-166q0 -160 -109.5 -246.5t-258.5 -86.5q-154 0 -262.5 103.5t-108.5 287.5z" />
<glyph unicode="4" horiz-adv-x="899" d="M2 598v791h164v-715h369v715h163v-1389h-163v510h-443q-90 0 -90 88z" />
<glyph unicode="5" horiz-adv-x="915" d="M-14 365h164q0 -98 56 -154.5t134 -56.5q82 0 144.5 46t62.5 126v202q0 66 -47 112t-113 46h-293q-37 0 -65.5 25.5t-28.5 66.5v516q0 41 28.5 66.5t65.5 25.5h551v-165h-481v-371h223q129 0 227.5 -97.5t98.5 -224.5v-202q0 -160 -110.5 -249t-262.5 -89 q-145 0 -248.5 99.5t-105.5 277.5z" />
<glyph unicode="6" horiz-adv-x="937" d="M0 324v741q0 160 105.5 244t259.5 84q90 0 163.5 -30t155.5 -114q-20 -23 -41 -39q-2 -2 -8 -6l-14 -12q-4 -2 -11 -8q-4 -2 -14 -13h-2l-31 -30q-94 88 -198 88q-84 0 -143.5 -43t-59.5 -121l-2 -283q25 55 89 88t120 33q154 0 260 -84t106 -239v-256 q0 -160 -109.5 -247t-256.5 -87q-154 0 -261.5 87t-107.5 247zM162 324q0 -78 61.5 -123t143.5 -45q80 0 141 45t63 123v256q0 78 -59 119.5t-143 41.5q-86 0 -146.5 -43t-60.5 -125v-249z" />
<glyph unicode="7" horiz-adv-x="899" d="M-31 1223v166h643q86 0 86 -89v-208q0 -115 -67 -201l-338 -465v2q-33 -51 -33 -119v-309h-164v309q0 117 62 209q16 33 169.5 243t172.5 230q37 57 37 103v129h-568z" />
<glyph unicode="8" horiz-adv-x="923" d="M0 322v155q0 74 51 153t135 93q-84 18 -130 95t-46 151v112q0 156 106.5 241t258.5 85q145 0 252.5 -86t107.5 -240v-112q0 -72 -44 -144.5t-122 -99.5q76 -14 125 -93t49 -155v-155q0 -162 -110.5 -251t-259.5 -89q-154 0 -263.5 89t-109.5 251zM164 322 q0 -80 61.5 -127.5t147.5 -47.5q82 0 144.5 47.5t62.5 127.5v155q0 68 -46.5 115t-111.5 49h-98q-66 -2 -113 -49t-47 -115v-155zM172 969q0 -70 44 -118t114 -50q39 -4 84 0q68 2 112.5 50t44.5 118v112q0 74 -59 118t-137 44q-82 0 -142.5 -44t-60.5 -118v-112z" />
<glyph unicode="9" horiz-adv-x="940" d="M0 803v254q0 160 108.5 247t260.5 87q150 0 258 -87t108 -247v-742q0 -160 -105.5 -244.5t-256.5 -84.5q-182 0 -326 147l127 109q88 -90 199 -90q82 0 141 43t59 120v289q-29 -66 -88 -97.5t-116 -31.5q-158 0 -263.5 84t-105.5 244zM162 803q0 -78 60.5 -121t146.5 -43 q84 0 144 44t60 126v248q0 78 -61 123t-141 45q-82 0 -144.5 -45t-64.5 -123v-254z" />
<glyph unicode=":" horiz-adv-x="368" d="M2 291q0 41 26.5 70.5t67.5 29.5q45 0 74 -29.5t29 -70.5q0 -45 -28 -71.5t-75 -26.5q-43 0 -68.5 26.5t-25.5 71.5zM2 711q0 39 26.5 68.5t67.5 29.5q45 0 74 -29.5t29 -68.5q0 -45 -28 -72t-75 -27q-43 0 -68.5 27t-25.5 72z" />
<glyph unicode=";" horiz-adv-x="366" d="M-6 289q0 41 28.5 71.5t71.5 30.5q45 0 74 -29.5t29 -70.5q0 -25 -3.5 -39t-11.5 -30.5t-31.5 -77t-52.5 -144.5l-69 33v180q-35 25 -35 76zM0 711q0 39 26.5 68.5t67.5 29.5q45 0 74 -29.5t29 -68.5q0 -45 -28 -72t-75 -27q-43 0 -68.5 27t-25.5 72z" />
<glyph unicode="&#x3c;" horiz-adv-x="794" d="M4 600q0 49 43 70h-2q74 45 246 143t237 137v-190q-23 -12 -57 -31l-104 -55q-70 -37 -144 -76l2 -2q98 -45 303 -166v-192l-483 284q-41 27 -41 78z" />
<glyph unicode="=" horiz-adv-x="903" d="M8 449v163h639v-163h-639zM8 764v164h639v-164h-639z" />
<glyph unicode="&#x3e;" horiz-adv-x="679" d="M2 238v196q82 49 244 135q12 6 49 14.5t43 12.5q-37 18 -162 76.5t-174 87.5v192q195 -119 477 -282h-2q49 -23 49 -72q0 -51 -45 -74z" />
<glyph unicode="?" horiz-adv-x="862" d="M2 1008q8 158 104.5 264t227.5 106q135 0 233.5 -95t98.5 -234v-109q0 -188 -183 -299q-80 -47 -80 -135v-195h-165v195q0 186 161 287q100 55 101 149v107q0 68 -49.5 114.5t-116.5 46.5q-66 0 -114 -66.5t-50 -158.5zM215 92q0 47 29.5 78t79.5 31q39 0 69.5 -32 t30.5 -77q0 -39 -32 -71.5t-68 -32.5q-47 0 -78 31.5t-31 72.5z" />
<glyph unicode="@" horiz-adv-x="1282" d="M2 311v342q-2 238 163 398.5t388 160.5q127 0 255 -53t224 -171t96 -273v-600q-6 -96 -92 -149.5t-185 -30t-140 119.5q-57 -37 -156 -37q-121 -4 -212 86.5t-91 210.5v342q0 121 92 210t211 85q78 -4 161 -57t146 -70q4 -557 2 -712q0 -25 24.5 -34t48.5 2t24 34v600 q0 27 -8.5 61.5t-36 83.5t-69.5 88t-120 67.5t-178 28.5q-154 2 -270.5 -114.5t-112.5 -276.5v-342q0 -158 116.5 -268.5t266.5 -110.5q66 0 119 17l61 -158q-98 -25 -164 -24q-221 0 -392 153t-171 391zM418 315q0 -53 41 -95t96 -40q59 0 101 24.5t42 69.5v410 q0 47 -41 77t-102 32q-55 0 -96 -40t-41 -96v-342z" />
<glyph unicode="A" horiz-adv-x="1062" d="M-20 0l339 1335q18 53 57.5 84t80.5 31t79.5 -32t53.5 -79l346 -1339h-182l-127 489h-344q-113 -440 -125 -489h-178zM324 657h260l-105 510l-14 140h-16l-17 -140q-23 -86 -56.5 -260t-51.5 -250z" />
<glyph unicode="B" horiz-adv-x="962" d="M0 133v1167q0 61 35 97.5t96 36.5h285q137 -2 237.5 -99.5t100.5 -240.5v-72q0 -72 -47.5 -151.5t-131.5 -100.5q94 -14 147.5 -97t53.5 -167v-170q0 -133 -102.5 -234.5t-231.5 -103.5h-311q-61 0 -96 36t-35 99zM168 168h274q63 4 113.5 53t50.5 115v170q0 72 -49 123 t-119 51h-270v-512zM168 852h270q63 0 105.5 50t42.5 120v72q0 70 -50.5 120t-119.5 50h-248v-412z" />
<glyph unicode="C" horiz-adv-x="952" d="M0 338v762q0 166 112.5 258t270.5 92q156 0 271.5 -107.5t117.5 -300.5h-174q0 111 -62.5 174.5t-150.5 63.5t-152.5 -48t-64.5 -132v-762q2 -84 66.5 -132t150.5 -48t149.5 62.5t63.5 172.5h174q-2 -190 -117.5 -297.5t-269.5 -107.5q-160 0 -272.5 92t-112.5 258z" />
<glyph unicode="D" horiz-adv-x="964" d="M0 133v1170q0 57 37 94t94 37h313q131 0 232.5 -102.5t101.5 -237.5v-756q0 -143 -100 -240.5t-234 -97.5h-313q-59 0 -95 39t-36 94zM168 1264q0 -184 1 -546t1 -548h274q66 0 115 49t49 119v754q0 70 -49 121t-115 51h-276z" />
<glyph unicode="E" horiz-adv-x="858" d="M0 342v958q0 57 42 95.5t95 38.5h514v-170l-481 -4v-441h461v-170h-461v-307q0 -70 50 -121t120 -51h311v-170h-311q-137 0 -238.5 102.5t-101.5 239.5z" />
<glyph unicode="F" horiz-adv-x="825" d="M0 0v1300q0 57 41 95.5t94 38.5h514v-170l-479 -4v-439h448v-170h-448v-651h-170z" />
<glyph unicode="G" horiz-adv-x="962" d="M0 340v764q0 164 113.5 256t271.5 92q156 0 270.5 -107.5t116.5 -297.5h-172q0 111 -63.5 173t-151.5 62t-152.5 -47t-64.5 -131v-764q0 -84 65.5 -133t155.5 -49q88 0 151.5 47t65.5 127v309h-233v168h270q59 0 96 -36t37 -93v-348q0 -162 -114.5 -253t-272.5 -91 q-160 0 -274.5 93t-114.5 259z" />
<glyph unicode="H" horiz-adv-x="905" d="M0 0v1434h168v-641h387v641h170v-1434h-170v625h-387v-625h-168z" />
<glyph unicode="I" horiz-adv-x="380" d="M20 0v1434h170v-1434h-170z" />
<glyph unicode="J" horiz-adv-x="954" d="M-6 397h170q0 -115 65.5 -180t153.5 -65t151.5 50t63.5 138l-4 924h-229v170h270q57 0 96 -39t39 -92v-963q0 -168 -116.5 -265.5t-274.5 -97.5t-271.5 111.5t-113.5 308.5z" />
<glyph unicode="K" horiz-adv-x="950" d="M0 0v1434h168v-619h90q78 0 140.5 47t86.5 127q25 84 58 215q61 223 63 230h182q-25 -92 -34 -127q-16 -68 -39 -144q-31 -104 -56 -202q-4 -8 -4 -17q-23 -68 -86 -138.5t-143 -74.5q82 -12 146.5 -79.5t82.5 -137.5q8 -31 27.5 -107.5t30.5 -117.5q29 -115 30 -125 q6 -25 13 -55q4 -16 16 -58.5t14 -50.5h-178q-20 90 -65 250q-23 80 -47 180v-2q-2 6 -5.5 20.5t-5.5 20.5q-25 82 -87 129t-140 47h-90v-645h-168z" />
<glyph unicode="L" horiz-adv-x="804" d="M0 131v1303h172l2 -1264h496v-170h-529h-10q-47 0 -87 35q-44 39 -44 96z" />
<glyph unicode="M" horiz-adv-x="1126" d="M0 0v1311q-2 59 43 91t100 32q41 0 77 -26t50 -67q20 -66 176 -643l11 -106h12l10 110q10 39 36 137.5t42 151.5q59 207 109 357q16 45 51 69.5t74 24.5q51 0 92 -34t43 -93v-1315h-168l-2 29l6 956l47 285h-27l-47 -221q-27 -82 -83 -266.5t-85 -270.5 q-12 -35 -41.5 -56.5t-64.5 -21.5q-29 0 -57.5 21.5t-45.5 56.5l-163 547l-37 211h-15l21 -275l4 -995h-168z" />
<glyph unicode="N" horiz-adv-x="972" d="M0 0v1319q-2 55 33 88t82 33q39 0 75.5 -22.5t45.5 -59.5l-3 4l422 -1192h13l-60 270l-8 994h170v-1317q0 -55 -31.5 -86t-76.5 -31q-33 0 -68 20.5t-49 53.5q-57 143 -163 432t-144 389q-20 55 -55.5 194.5t-41.5 155.5l-24 -6l49 -252l8 -987h-174z" />
<glyph unicode="O" horiz-adv-x="958" d="M0 336v764q0 164 113.5 255t271.5 91t272.5 -92t114.5 -254v-764q0 -164 -114.5 -256t-272.5 -92t-271.5 92t-113.5 256zM166 336q0 -84 65.5 -131t153.5 -47t152.5 47t64.5 131v764q0 82 -64.5 129t-152.5 47t-153.5 -47t-65.5 -129v-764z" />
<glyph unicode="P" horiz-adv-x="894" d="M0 0v1300q0 57 39 95.5t92 38.5h287q133 0 232.5 -102.5t99.5 -237.5v-205q0 -135 -99.5 -237.5t-232.5 -102.5h-252v-549h-166zM166 719h252q68 0 116 50t48 120v205q0 70 -48.5 120t-115.5 50l-252 -4v-541z" />
<glyph unicode="Q" d="M0 338v762q0 164 113.5 255t273.5 91q156 0 269.5 -92t113.5 -254v-762q0 -102 -47 -178l70 -72l-127 -125l-70 78q-111 -53 -209 -53q-158 0 -272.5 93t-114.5 257zM168 334q2 -82 65.5 -131t151.5 -49q63 0 94 18l-73 51l122 123l64 -78q10 18 10 70v762 q0 82 -63.5 129t-151.5 47t-152.5 -47t-66.5 -129v-766z" />
<glyph unicode="R" horiz-adv-x="919" d="M0 0v1300q0 59 37 97.5t96 38.5h279q145 0 241.5 -96.5t96.5 -241.5v-213q0 -78 -61.5 -165t-153.5 -93q98 -10 159.5 -95.5t61.5 -164.5v-367h-168v367q0 70 -68.5 122t-144.5 52h-209v-541h-166zM166 711h209q74 0 140.5 52t66.5 122v213q0 70 -49.5 119t-120.5 49 h-246v-555z" />
<glyph unicode="S" horiz-adv-x="919" d="M0 389h166q0 -109 61.5 -170t147.5 -61q84 0 147.5 47t63.5 127v147q0 57 -37 94t-78 49.5t-111 24.5q-86 16 -134 31.5t-108.5 51.5t-89 99.5t-28.5 157.5v119q0 162 110.5 253t266.5 91q152 0 264.5 -107.5t112.5 -293.5h-168q0 109 -62.5 170t-146.5 61 q-86 0 -148.5 -47t-62.5 -127v-119q0 -125 229 -172q61 -12 102.5 -23.5t94.5 -37t85 -59t54.5 -89t22.5 -127.5v-147q0 -162 -114 -254t-265 -92q-156 0 -266.5 106.5t-108.5 296.5z" />
<glyph unicode="T" horiz-adv-x="1036" d="M0 1264v170h831v-170h-335v-1264h-168v1264h-328z" />
<glyph unicode="U" d="M-2 332v1102h166v-1102q6 -78 72.5 -128t148.5 -50q88 0 151.5 47t63.5 131v1102h170v-1102q0 -164 -114.5 -256t-272.5 -92t-271.5 92t-113.5 256z" />
<glyph unicode="V" horiz-adv-x="1110" d="M-20 1434h178l268 -1086l20 -207h19l16 207q23 92 85.5 353.5t112.5 458t77 274.5h178q-80 -307 -160 -617.5t-113.5 -443.5t-58.5 -223q-2 -6 -6 -19.5t-7 -24t-5 -18.5q-14 -49 -51 -76.5t-78 -27.5q-98 0 -133 110q-117 457 -200 780.5t-107.5 421t-34.5 138.5z" />
<glyph unicode="W" horiz-adv-x="1343" d="M-27 1434h181q55 -242 170 -936l20 -332h16l19 305l74 430q6 49 42.5 80t83.5 37q8 1 16 1q38 0 75 -24q45 -29 67 -88l76 -450l16 -281h19l16 326l160 932h186l-254 -1321q-12 -53 -49 -85t-80 -32t-75.5 31.5t-40.5 89.5l-84 399l-27 326h-18l-21 -314l-82 -415 q-8 -53 -43 -84t-78 -31q-41 0 -80.5 30.5t-52.5 82.5q-33 172 -252 1323z" />
<glyph unicode="X" horiz-adv-x="894" d="M-80 1434h186l250 -603l246 603h189l-340 -727l327 -707h-180l-242 584l-245 -584h-185l336 713z" />
<glyph unicode="Y" horiz-adv-x="911" d="M-53 1434h180q35 -82 132 -332t99 -252l19 -111q10 88 16 113q20 51 112.5 287.5t117.5 294.5h184l-346 -816v-618h-170v623q-86 205 -133 313q-105 234 -211 498z" />
<glyph unicode="Z" horiz-adv-x="845" d="M-35 113q0 29 17 73l516 1041l65 65l-6 8l-100 -36h-447v170h584q123 0 123 -99q0 -29 -17 -73l-518 -1045l-59 -57l4 -8l72 18h489v-170h-600q-57 0 -90 31t-33 82z" />
<glyph unicode="[" horiz-adv-x="454" d="M2 -12v1419q0 43 18.5 62.5t63.5 19.5h291v-166h-209v-1251h209v-164h-291q-47 0 -64.5 18.5t-17.5 61.5z" />
<glyph unicode="\" horiz-adv-x="704" d="M-113 1442h179l491 -1524h-168q-27 59 -39 98l-6 23q-4 14 -13 42t-14 38q-8 25 -23 74t-22 69q-33 96 -88 275h2q-18 57 -118 354q-35 111 -78 238.5t-71 212t-32 100.5z" />
<glyph unicode="]" horiz-adv-x="411" d="M-113 72h187v1251h-187v166h271q45 0 63.5 -19.5t18.5 -62.5v-1419q0 -43 -17.5 -61.5t-64.5 -18.5h-271v164z" />
<glyph unicode="^" horiz-adv-x="749" d="M-2 1227l244 178q57 43 108 0q57 -43 166 -123q10 -8 37 -27.5t33 -23.5l-101 -131l-184 143q-6 -4 -16.5 -10t-14.5 -10l-49 -37q-10 -10 -48 -40t-60 -48z" />
<glyph unicode="_" horiz-adv-x="1103" d="M4 -27v168h901v-168h-901z" />
<glyph unicode="`" horiz-adv-x="839" d="M106 1520l173 102l186 -344l-178 -2z" />
<glyph unicode="a" horiz-adv-x="845" d="M0 315v58q0 131 90 225t229 94q51 0 101.5 -30.5t66.5 -77.5l-4 86q0 66 -47 111.5t-112 45.5q-76 0 -156 -77l-90 137q119 109 246 108q131 0 228 -96t97 -229v-670h-133l-16 104q-14 -57 -70.5 -86.5t-105.5 -29.5q-131 0 -227.5 97t-96.5 230zM166 315 q0 -66 47 -113.5t111 -47.5q59 0 109 42t50 95v100q0 61 -46 100t-113 39q-66 0 -112 -46t-46 -111v-58z" />
<glyph unicode="b" horiz-adv-x="851" d="M0 0v1397h166v-500q47 88 158 96q13 1 24 1q118 0 207 -89q98 -98 98 -227v-391q0 -135 -83 -217t-242 -82q-119 0 -170 114l-33 -102h-125zM166 297q0 -55 47 -100t111 -45q70 0 116.5 37.5t46.5 97.5v391q0 61 -48 105t-115 44q-74 0 -115 -38.5t-43 -102.5v-389z" />
<glyph unicode="c" horiz-adv-x="831" d="M-14 315v357q0 137 97 231t230 94q131 0 226.5 -111.5t97.5 -271.5h-166q0 92 -46 153.5t-111.5 61.5t-113.5 -47t-48 -110v-357q0 -66 48 -112.5t113.5 -46.5t111.5 64.5t46 152.5h166q-2 -158 -95 -270.5t-229 -112.5q-133 0 -230 96t-97 229z" />
<glyph unicode="d" horiz-adv-x="847" d="M0 287v391q0 129 98 227q89 89 207 89q12 0 25 -1q111 -8 157 -96v500h166v-1397h-125l-32 102q-51 -115 -170 -114q-162 0 -244 82t-82 217zM166 287q0 -59 47 -97t117 -38q63 0 110 45t47 100v389q-2 63 -43 102t-114 39q-68 0 -116 -44t-48 -105v-391z" />
<glyph unicode="e" horiz-adv-x="843" d="M0 315v355q0 131 95 229t231 98q133 0 228 -95t95 -230t-93 -213t-230 -78h-160v-66q0 -66 47 -111.5t113 -45.5q98 0 170 100l135 -98q-115 -168 -305 -168q-133 0 -229.5 93t-96.5 230zM166 510h160q63 0 110 48t47 113.5t-47 111.5t-110 46q-66 0 -113 -48t-47 -113 v-158z" />
<glyph unicode="f" horiz-adv-x="499" d="M0 0v1071q0 139 115.5 234.5t273.5 95.5v-164q-90 0 -157.5 -49t-67.5 -117v-303h203v-164h-203v-604h-164z" />
<glyph unicode="g" horiz-adv-x="849" d="M0 299v393q0 125 101 220q92 86 204 86q12 0 25 -1q143 -14 174 -125l16 115h135v-1067q0 -137 -97 -230t-232 -93q-57 0 -130 29.5t-130 80.5l94 131q90 -74 166 -74q68 0 115.5 46.5t47.5 109.5v174q-37 -100 -159 -100q-135 0 -232.5 83t-97.5 222zM166 299 q-4 -68 46 -103.5t122 -35.5q61 0 108 39t47 98v401q0 53 -50 92t-109 41q-66 0 -115 -39.5t-49 -99.5v-393z" />
<glyph unicode="h" horiz-adv-x="847" d="M0 0v1389h166l2 -506q18 47 64.5 76.5t95.5 33.5q16 1 30 2q122 0 202 -90q89 -100 89 -239l2 -666h-166v666q0 68 -46 115q-44 46 -106 46h-5q-68 -4 -115 -50t-47 -111v-666h-166z" />
<glyph unicode="i" horiz-adv-x="362" d="M-8 1200q0 47 29.5 76t70.5 29q43 0 75 -30t32 -75q0 -43 -32 -72.5t-75 -29.5q-41 0 -70.5 29.5t-29.5 72.5zM12 0v985h164v-985h-164z" />
<glyph unicode="j" horiz-adv-x="399" d="M-182 -403l2 167q84 0 140 45.5t56 110.5v1067h166v-1067q0 -137 -104 -230t-260 -93zM-2 1202q0 47 29.5 76t70.5 29q45 0 76 -29t31 -76q0 -43 -32 -72.5t-75 -29.5q-41 0 -70.5 29.5t-29.5 72.5z" />
<glyph unicode="k" horiz-adv-x="823" d="M0 0v1386h166v-813h12q129 0 170 93l150 321h174q-25 -66 -82 -180q-31 -66 -92 -209q-16 -35 -59.5 -68.5t-102.5 -40.5q59 -2 102 -35.5t60 -68.5l172 -385h-174l-148 319q-41 90 -170 91h-12v-410h-166z" />
<glyph unicode="l" horiz-adv-x="477" d="M0 332v1057h164v-1057q0 -72 60.5 -120t148.5 -48v-164q-160 0 -266.5 93.5t-106.5 238.5z" />
<glyph unicode="m" horiz-adv-x="1386" d="M0 0v985h129l21 -96q53 104 176 108h7q68 0 132 -36q68 -39 102 -127q63 164 244 163q133 0 226 -94t93 -231v-672h-163v672q0 63 -33 106t-80 51q-21 4 -42 4l-52 -6q-47 -10 -80 -52t-33 -103v-672h-164v672q0 66 -47 112.5t-114 46.5q-66 0 -112 -47t-46 -112v-672 h-164z" />
<glyph unicode="n" horiz-adv-x="845" d="M0 0v987h131l23 -100q43 100 172 110q10 1 19 1q119 0 209 -94q97 -101 97 -232v-672h-166v672q0 66 -48 112.5t-113 46.5q-63 0 -110.5 -47t-47.5 -112v-672h-166z" />
<glyph unicode="o" horiz-adv-x="860" d="M2 315v359q0 156 98.5 239.5t233.5 83.5q137 0 235.5 -84t98.5 -239v-359q0 -156 -99.5 -240.5t-234.5 -84.5q-137 0 -234.5 84.5t-97.5 240.5zM166 315q0 -74 50 -115.5t117.5 -41.5t118 42t50.5 115v359q0 74 -50.5 117t-118 43t-117.5 -43t-50 -117v-359z" />
<glyph unicode="p" horiz-adv-x="847" d="M0 -406v1397h125l33 -102q51 115 170 115q160 0 242.5 -82t82.5 -217v-392q0 -129 -98 -227q-89 -89 -207 -89q-12 0 -24 1q-117 8 -158 84v-488h-166zM166 305q2 -63 43 -102t115 -39q68 0 115.5 44t47.5 105v392q0 59 -47 97t-116 38q-63 0 -110.5 -45t-47.5 -101v-389 z" />
<glyph unicode="q" horiz-adv-x="829" d="M0 313v392q0 135 82 217t244 82q119 0 170 -115l32 102h125v-1397h-166v488q-41 -76 -157 -84q-13 -1 -25 -1q-118 0 -207 89q-98 98 -98 227zM166 313q0 -61 48 -105t116 -44q74 0 114.5 39t42.5 102v389q0 55 -47 100.5t-110 45.5q-70 0 -117 -38t-47 -97v-392z" />
<glyph unicode="r" horiz-adv-x="577" d="M0 0v981h137l19 -100q41 104 142 117q16 2 31 2q83 0 152 -60l-57 -149q-52 40 -112 39q-23 0 -48 -6q-88 -22 -100 -117v-707h-164z" />
<glyph unicode="s" horiz-adv-x="765" d="M-41 190l141 76q70 -115 183 -114q66 0 112.5 36.5t46.5 100.5q0 61 -44 94t-109 35q-139 4 -223 67.5t-84 204.5q0 139 95 222q97 85 228 85q176 0 299 -184l-139 -92q-82 115 -158 115q-74 0 -123 -54q-37 -41 -37 -98q-2 -51 37 -73.5t107 -24.5q131 -4 224 -81 t93 -222q0 -141 -95 -218q-97 -79 -232 -79q-88 0 -177.5 54t-144.5 150z" />
<glyph unicode="t" horiz-adv-x="514" d="M0 332v1057h164v-400h205v-166h-205v-491q0 -70 65.5 -119t157.5 -49v-164q-158 0 -272.5 94.5t-114.5 237.5z" />
<glyph unicode="u" horiz-adv-x="831" d="M0 313v672h166v-672q0 -66 45 -111.5t108.5 -45.5t109.5 46t46 111v672h164v-672q0 -133 -91 -228t-229 -95q-133 0 -226 96t-93 227z" />
<glyph unicode="v" horiz-adv-x="839" d="M-8 985h178l176 -649l27 -209h18l25 209q78 297 176 649h176l-256 -893q-31 -104 -133 -104q-43 0 -80 28.5t-49 77.5v-2q-16 61 -51 176t-47 162q-133 461 -160 555z" />
<glyph unicode="w" horiz-adv-x="1069" d="M-6 987h170l110 -661l-10 -179h15l28 172l68 230q29 84 112 85h2q82 0 117 -85l70 -227l24 -179h13l-8 203q61 395 110 641h170l-164 -887q-8 -49 -43 -75.5t-76 -26.5q-39 0 -71.5 24.5t-44.5 65.5l-78 266l-10 146h-15l-12 -144l-86 -264q-14 -43 -46 -68.5t-69 -25.5 q-90 0 -114 96z" />
<glyph unicode="x" horiz-adv-x="763" d="M-39 0l293 494l-285 487h195l184 -363l189 363h192l-285 -487l293 -494h-194l-193 387l-192 -387h-197z" />
<glyph unicode="y" horiz-adv-x="845" d="M0 309v676h166v-676q0 -63 49 -108q47 -43 109 -43h6q66 0 109.5 32.5t43.5 90.5v704h166v-1065q-2 -137 -96 -230t-225 -93q-59 0 -135 33.5t-140 84.5l109 125q92 -76 166 -76q63 0 109 46.5t46 109.5v180q-18 -51 -65 -77.5t-88 -28.5q-10 -1 -21 -1q-118 0 -210 88 q-99 95 -99 228z" />
<glyph unicode="z" horiz-adv-x="792" d="M-14 109q0 39 14 65l403 580l99 82l-6 8l-99 -21l-401 -2v166h534q55 0 89 -30.5t34 -77.5q0 -43 -28 -84l-406 -576l-88 -74l4 -12l101 25l385 6v-164h-515q-55 0 -87.5 31t-32.5 78z" />
<glyph unicode="{" horiz-adv-x="612" d="M2 612v160q66 0 100.5 35t38.5 84q18 172 94 347t209 271l88 -131q-100 -84 -155 -224t-70 -277q-14 -125 -67 -189q51 -53 67 -180q23 -141 78 -282.5t139 -207.5l-73 -151q-133 106 -212 284.5t-98 340.5q-4 51 -37.5 85.5t-101.5 34.5z" />
<glyph unicode="|" horiz-adv-x="419" d="M47 -203v1727h164v-1727h-164z" />
<glyph unicode="}" horiz-adv-x="569" d="M-94 8q193 150 223 500q10 115 74 184q-63 70 -74 185q-25 139 -80 280t-143 213l84 141q129 -100 209 -279t96 -341q4 -49 37 -84t98 -35v-160q-68 0 -100.5 -34.5t-34.5 -85.5q-23 -168 -99.5 -346.5t-201.5 -272.5z" />
<glyph unicode="~" horiz-adv-x="784" d="M0 639l147 74q47 -70 60 -70q14 0 35 21v2q68 59 137 59q106 0 215 -158l-133 -96q-61 88 -82 88q-8 0 -23 -14q-68 -68 -147 -68q-100 0 -209 162z" />
<glyph unicode="&#xa1;" horiz-adv-x="409" d="M14 1323q0 41 32 74t73 33q37 0 67.5 -30t30.5 -71t-30.5 -70.5t-67.5 -29.5q-43 0 -74 25.5t-31 68.5zM33 -8h166v1122h-166v-1122z" />
<glyph unicode="&#xa2;" horiz-adv-x="849" d="M0 498v366q0 141 99.5 236.5t236.5 95.5q45 0 70 -4q6 12 21 63.5t27.5 94.5t14.5 43l172 -25q-45 -145 -84 -254q111 -94 111 -305h-166q-2 92 -50.5 155.5t-115.5 63.5q-70 0 -119 -48t-49 -116v-366q0 -66 49 -114t119 -48q68 0 117 64.5t49 158.5h166 q0 -162 -99.5 -275.5t-232.5 -113.5q-49 0 -74 4l-61 -184l-158 37l70 223q-109 103 -113 248z" />
<glyph unicode="&#xa3;" horiz-adv-x="927" d="M-51 0l61 164h88v362h-98v164h98v375q0 137 93.5 230.5t232.5 93.5q145 0 238.5 -119t87.5 -285h-162q4 96 -44 167t-120 71q-68 0 -115 -46.5t-47 -111.5v-375h252v-164h-252v-362h465v-164h-778z" />
<glyph unicode="&#xa4;" d="M-70 442v166h82v142h-82v163h72v136q0 158 110.5 244.5t262.5 86.5q150 0 260 -101t110 -284h-165q0 104 -60.5 161.5t-144.5 57.5t-145.5 -44t-61.5 -121v-136h207v-163h-219v-142h219v-166h-207v-118q2 -80 62.5 -125t142.5 -45q84 0 144.5 59t60.5 166h167 q0 -182 -111.5 -286.5t-258.5 -104.5q-152 0 -262.5 88t-110.5 248v118h-72z" />
<glyph unicode="&#xa5;" horiz-adv-x="950" d="M-72 1389l176 4q43 -98 83 -205t89.5 -241t75.5 -204q180 496 248 648l174 -5q-141 -326 -301 -704h96v-164h-139v-94h139v-164h-139v-260h-164v260h-129v164h129v94h-129v164h88q-152 373 -268 639q-15 41 -29 68z" />
<glyph unicode="&#xa7;" horiz-adv-x="864" d="M-20 184l141 90q88 -123 190 -122q68 0 116 38.5t50 106.5q0 63 -47 98t-113 37q-141 2 -230 79t-89 196q0 61 37 143q-12 43 -17 92q0 147 101.5 235.5t234.5 88.5q172 0 305 -203l-143 -74q-80 111 -164 111q-74 0 -129 -51q-35 -41 -39 -105q0 -96 154 -104 q135 -4 228 -82t93 -221q0 -92 -32 -152q14 -53 16 -88q0 -150 -97 -230.5t-235 -80.5q-86 0 -178 53t-153 145zM127 725q0 -63 52 -101t136 -42q117 -6 217 -78q-6 76 -62 124t-134 54q-125 2 -209 61v-18z" />
<glyph unicode="&#xa8;" horiz-adv-x="813" d="M57 1386.5q0 45.5 28 74t73 28.5q41 0 69.5 -32t28.5 -71q0 -43 -27.5 -69.5t-70.5 -26.5q-45 0 -73 25.5t-28 71zM383 1386q0 47 27.5 75t74.5 28q41 0 69 -31t28 -72q0 -45 -27 -70.5t-70 -25.5q-47 0 -74.5 25.5t-27.5 70.5z" />
<glyph unicode="&#xa9;" horiz-adv-x="1247" d="M0 528v326q0 250 151.5 387t362.5 137t363.5 -137t152.5 -387v-326q0 -250 -152.5 -388t-363.5 -138q-209 0 -361.5 138t-152.5 388zM168 528q2 -172 104.5 -267t243.5 -95t244.5 95t103.5 267v326q0 166 -103.5 260t-244.5 94t-243.5 -93t-104.5 -261v-326zM219 537v305 q0 131 87 219t210 88t212 -104.5t89 -253.5h-160q0 84 -39.5 140t-101.5 56q-57 0 -96 -42t-39 -103v-305q0 -63 38 -107.5t97 -44.5t100 59.5t41 143.5h160q0 -150 -87 -254.5t-214 -104.5q-125 0 -211 87.5t-86 220.5z" />
<glyph unicode="&#xaa;" horiz-adv-x="835" d="M-6 743v68q0 131 96 228.5t223 97.5q49 0 97.5 -29t68.5 -88l-2 74q0 68 -47 113.5t-117 45.5q-59 0 -153 -86l-88 146q123 106 241 106q133 0 230.5 -94t97.5 -231v-670h-125l-31 111q-18 -61 -68 -89t-104 -30q-127 0 -223 98t-96 229zM31 147v168h626v-168h-626z M156 743q0 -66 47 -113.5t110 -47.5q66 2 114 31.5t48 80.5v150q0 57 -46 91t-116 36q-66 0 -111.5 -47t-45.5 -113v-68z" />
<glyph unicode="&#xab;" horiz-adv-x="862" d="M-13 680q1 16 25 49q14 27 134 184.5t122 161.5l135 -96l-229 -307q221 -295 229 -305l-133 -109l-260 363q-24 43 -23 59zM306 676.5q1 23.5 30 54.5q14 18 122.5 169t127.5 175l139 -96l-229 -305l227 -307l-131 -109l-258 356l2 -2q0 2 -2 4l-4 5q-25 32 -24 55.5z " />
<glyph unicode="&#xad;" horiz-adv-x="860" d="M2 516v166h633v-166h-633z" />
<glyph unicode="&#xae;" horiz-adv-x="1280" d="M4 528v326q0 250 151.5 387t362.5 137t363.5 -137t152.5 -387v-326q0 -250 -152.5 -388t-363.5 -138q-209 0 -361.5 138t-152.5 388zM156 518q0 -180 108.5 -274t260 -94t254 93t102.5 275v344q0 176 -104.5 272.5t-254 96.5t-258 -96.5t-108.5 -272.5v-344zM262 356v605 q0 43 31 77.5t80 34.5h182q100 0 174 -72.5t74 -175.5v-24q0 -57 -39 -107.5t-111 -60.5q74 -6 112 -57.5t38 -106.5v-113h-166v109q0 35 -35 59.5t-74 24.5h-104v-193h-162zM424 715h104q39 0 72 24.5t33 61.5v28q0 33 -22.5 56.5t-55.5 23.5h-131v-194z" />
<glyph unicode="&#xaf;" horiz-adv-x="890" d="M6 1253v168h645v-168h-645z" />
<glyph unicode="&#xb0;" horiz-adv-x="999" d="M6 1028q0 158 113.5 274.5t275.5 116.5q156 0 274.5 -117.5t118.5 -273.5q0 -162 -117.5 -275.5t-275.5 -113.5q-164 0 -276.5 112.5t-112.5 276.5zM170 1028q0 -94 65.5 -160.5t159.5 -66.5t160 66.5t66 160.5q0 92 -66 158.5t-160 66.5t-159.5 -66.5t-65.5 -158.5z" />
<glyph unicode="&#xb2;" horiz-adv-x="931" d="M2 92v285q0 160 107.5 244t263.5 84q82 0 134 43t52 118v189q0 78 -57.5 122t-136.5 44q-82 0 -140.5 -57.5t-60.5 -164.5h-162q0 182 106.5 284.5t256.5 102.5q145 0 252.5 -87t107.5 -244v-189q-2 -150 -98.5 -237.5t-253.5 -87.5q-86 0 -147.5 -43t-61.5 -121v-213 h532v-164h-606q-57 0 -72.5 18.5t-15.5 73.5z" />
<glyph unicode="&#xb3;" horiz-adv-x="942" d="M0 377h164q0 -106 62.5 -165.5t146.5 -59.5q82 0 142 45t60 122v166q0 70 -62 122t-151 52v146q88 0 150.5 53t62.5 123v70q0 78 -60 123t-142 45q-86 0 -147.5 -57.5t-61.5 -164.5h-164q0 182 108.5 285.5t262.5 103.5q150 0 259 -88t109 -247v-70q0 -70 -53 -145.5 t-137 -102.5q80 -12 135 -94t55 -154v-166q0 -160 -109.5 -246.5t-258.5 -86.5q-154 0 -262.5 103.5t-108.5 287.5z" />
<glyph unicode="&#xb4;" horiz-adv-x="647" d="M63 1262l193 319l182 -80l-194 -239h-181z" />
<glyph unicode="&#xb5;" horiz-adv-x="856" d="M2 -8v1397h162q0 -135 2 -697q8 -57 55 -102t105 -45q68 0 117 46t49 109v686h165l-2 -1056h-166v162q-45 -109 -163 -109q-106 0 -160 92v-483h-164z" />
<glyph unicode="&#xb6;" horiz-adv-x="839" d="M0 852v199q0 131 95 227t231 96h227q45 0 69.5 -25.5t24.5 -68.5v-1280h-164v530h-157q-133 0 -229.5 95.5t-96.5 226.5zM166 852q0 -66 47 -112t113 -46h157v512h-157q-66 0 -113 -46t-47 -109v-199z" />
<glyph unicode="&#xb7;" horiz-adv-x="643" d="M12 688q0 80 53.5 136.5t131.5 56.5q84 0 137 -56.5t53 -136.5q0 -84 -52 -135t-138 -51q-80 0 -132.5 51t-52.5 135z" />
<glyph unicode="&#x2219;" horiz-adv-x="643" d="M12 688q0 80 53.5 136.5t131.5 56.5q84 0 137 -56.5t53 -136.5q0 -84 -52 -135t-138 -51q-80 0 -132.5 51t-52.5 135z" />
<glyph unicode="&#xb8;" horiz-adv-x="888" d="M164 121l164 22q2 -129 56 -178t155 8l39 -178q-178 -76 -309.5 30t-104.5 296z" />
<glyph unicode="&#xb9;" horiz-adv-x="454" d="M-66 1223v166h238q88 0 88 -93v-1296h-164v1223h-162z" />
<glyph unicode="&#xba;" horiz-adv-x="860" d="M2 315v359q0 156 98.5 239.5t233.5 83.5q137 0 235.5 -84t98.5 -239v-359q0 -156 -99.5 -240.5t-234.5 -84.5q-137 0 -234.5 84.5t-97.5 240.5zM166 315q0 -74 50 -115.5t117.5 -41.5t118 42t50.5 115v359q0 74 -50.5 117t-118 43t-117.5 -43t-50 -117v-359z" />
<glyph unicode="&#xbb;" horiz-adv-x="866" d="M-20 352l229 305l-227 308l131 108l258 -356l-2 2q0 -2 2 -4l4 -4q25 -33 23.5 -56.5t-29.5 -54.5q-14 -18 -123 -168.5t-127 -175.5zM301 352l229 307q-221 295 -229 306l133 108l260 -362q25 -43 24 -59.5t-26 -49.5q-14 -27 -134 -184.5t-122 -161.5z" />
<glyph unicode="&#xbf;" horiz-adv-x="860" d="M18 322v112q0 195 181 289l-2 -2q84 55 84 143v226h163v-226q0 -184 -159 -284q-102 -57 -103 -148v-110q0 -68 49.5 -116t116.5 -48q66 0 115 64.5t51 160.5l170 -21q-10 -158 -106.5 -264t-229.5 -106q-135 0 -232.5 94.5t-97.5 235.5zM268 1313q0 43 29 71.5 t67.5 28.5t67.5 -28.5t29 -71.5t-30 -74t-66.5 -31t-66.5 31t-30 74z" />
<glyph unicode="&#xc0;" horiz-adv-x="1052" d="M-41 0l340 1335q18 53 57 84t80 31t80 -32t53 -79l346 -1339h-182l-127 489h-344q-113 -440 -125 -489h-178zM225 1731l148 88l157 -293l-151 -2zM303 657h260l-104 510l-15 140h-16l-16 -140q-23 -86 -57 -260t-52 -250z" />
<glyph unicode="&#xc1;" horiz-adv-x="1032" d="M-49 0h178q12 49 125 489h344l127 -489h182l-346 1339q-14 47 -53 79t-80 32t-80 -30.5t-57 -84.5zM295 657q18 76 52 250t56 260l17 140h16l15 -140l104 -510h-260zM340 1528l178 293l166 -74l-178 -219h-166z" />
<glyph unicode="&#xc2;" horiz-adv-x="1052" d="M-41 0l340 1335q18 53 57 84t80 31t80 -32t53 -79l346 -1339h-182l-127 489h-344q-113 -440 -125 -489h-178zM197 1597l196 146q51 33 101 0l184 -144l-96 -110l-140 110q-18 -12 -54 -40.5t-63.5 -51t-33.5 -24.5zM303 657h260l-104 510l-15 140h-16l-16 -140 q-23 -86 -57 -260t-52 -250z" />
<glyph unicode="&#xc3;" horiz-adv-x="1048" d="M-45 0l340 1335q18 53 57 84t80 31t80 -32t53 -79l346 -1339h-182l-127 489h-344q-113 -440 -125 -489h-178zM205 1634l94 66q18 -25 44 -36t40 1q137 135 289 -74l-92 -67q-49 80 -97 53q-80 -70 -143 -54.5t-135 111.5zM299 657h260l-104 510l-15 140h-16l-16 -140 q-23 -86 -57 -260t-52 -250z" />
<glyph unicode="&#xc4;" horiz-adv-x="1048" d="M-45 0h178q12 49 125 489h344l127 -489h182l-346 1339q-14 47 -53 79t-80 32t-80 -30.5t-57 -84.5zM168 1622q0 45 27.5 73.5t72.5 28.5q41 0 70 -31.5t29 -70.5q0 -43 -28 -69.5t-71 -26.5q-45 0 -72.5 25.5t-27.5 70.5zM299 657q18 76 52 250t57 260l16 140h16l15 -140 l104 -510h-260zM494 1622q0 45 27.5 73.5t74.5 28.5q41 0 68.5 -30.5t27.5 -71.5q0 -45 -26.5 -70.5t-69.5 -25.5q-47 0 -74.5 25.5t-27.5 70.5z" />
<glyph unicode="&#xc5;" horiz-adv-x="1040" d="M-41 4l340 1335q18 53 57 84t80 31t80 -31.5t53 -79.5l346 -1339h-182l-127 490h-344q-113 -440 -125 -490h-178zM203 1552q0 94 63.5 160t157.5 66q92 0 159.5 -66.5t67.5 -159.5q0 -88 -67.5 -154.5t-159.5 -66.5q-94 0 -157.5 65.5t-63.5 155.5zM303 662h260l-104 509 l-15 140h-16l-16 -140q-23 -86 -57 -259.5t-52 -249.5zM369 1552q0 -23 16 -40t39 -17q27 0 43 16.5t16 40.5q0 27 -16 43.5t-43 16.5q-23 0 -39 -17.5t-16 -42.5z" />
<glyph unicode="&#xc6;" horiz-adv-x="1527" d="M-12 14q94 387 153 607v-3q123 483 183 715q37 117 137 117q98 0 135 -117l102 -502v46q-2 41 -6 135t-7 172t-3 116q0 57 39 95.5t92 38.5h514v-170l-477 -4v-441h463v-170h-463q0 -123 1 -194.5t2 -91t1 -21.5q2 -82 52 -127t112 -45h309v-170h-309q-129 0 -227.5 88 t-106.5 234v-5l-22 164q-2 2 -3 4l-2 2h-370q-16 -61 -40 -156t-26 -102v2q-18 -70 -31.5 -126t-21.5 -86.5t-10 -41.5zM326 657h264l-131 572q-49 -184 -77 -307t-41 -189t-15 -76z" />
<glyph unicode="&#xc7;" horiz-adv-x="950" d="M-2 338v762q0 166 112.5 258t270.5 92q156 0 271.5 -107.5t117.5 -300.5h-174q0 111 -62.5 174.5t-150.5 63.5t-152.5 -48t-64.5 -132v-762q2 -84 66.5 -132t150.5 -48q88 0 150.5 62.5t62.5 172.5h174q-2 -190 -117.5 -297.5t-269.5 -107.5q-158 0 -271.5 92t-113.5 258 zM268 66l154 22q2 -135 53 -186.5t148 8.5l36 -186q-168 -80 -292 30.5t-99 311.5z" />
<glyph unicode="&#xc8;" horiz-adv-x="827" d="M-2 342v958q0 57 42 95.5t95 38.5h514v-170l-481 -4v-441h461v-170h-461v-307q0 -70 50 -121t120 -51h311v-170h-311q-137 0 -238.5 102.5t-101.5 239.5zM160 1706l151 90l164 -303l-158 -2z" />
<glyph unicode="&#xc9;" horiz-adv-x="827" d="M-2 342q0 -137 101.5 -239.5t238.5 -102.5h311v170h-311q-70 0 -120 51t-50 121v307h461v170h-461v441l481 4v170h-514q-53 0 -95 -38t-42 -96v-958zM244 1497l174 289l164 -72l-176 -217h-162z" />
<glyph unicode="&#xca;" horiz-adv-x="813" d="M-2 342v958q0 57 42 95.5t95 38.5h514v-170l-481 -4v-441h461v-170h-461v-307q0 -70 50 -121t120 -51h311v-170h-311q-137 0 -238.5 102.5t-101.5 239.5zM123 1616l196 143q47 33 97 0l182 -141l-92 -111l-139 111q-18 -12 -54.5 -42t-63 -51.5t-32.5 -23.5z" />
<glyph unicode="&#xcb;" horiz-adv-x="808" d="M-2 342q0 -137 101.5 -239.5t238.5 -102.5h311v170h-311q-70 0 -120 51t-50 121v307h461v170h-461v441l481 4v170h-514q-53 0 -95 -38t-42 -96v-958zM123 1602q0 43 26.5 69.5t67.5 26.5q39 0 64.5 -30t25.5 -66q0 -41 -24.5 -65t-65.5 -24q-43 0 -68.5 24t-25.5 65z M426 1602q0 43 25.5 69.5t68.5 26.5q39 0 64.5 -30t25.5 -66q0 -41 -24.5 -65t-65.5 -24q-43 0 -68.5 24t-25.5 65z" />
<glyph unicode="&#xcc;" horiz-adv-x="335" d="M-139 1735l151 90l166 -303l-158 -2zM12 0v1434h170v-1434h-170z" />
<glyph unicode="&#xcd;" horiz-adv-x="331" d="M8 0h170v1434h-170v-1434zM14 1505l168 279l158 -70l-170 -209h-156z" />
<glyph unicode="&#xce;" horiz-adv-x="323" d="M-172 1604l197 143q47 33 96 0l182 -141l-92 -111l-139 111q-18 -12 -54 -42t-63 -51.5t-33 -23.5zM0 0v1434h170v-1434h-170z" />
<glyph unicode="&#xcf;" horiz-adv-x="323" d="M-182 1595q0 45 27.5 74t72.5 29q41 0 69.5 -32t28.5 -71q0 -43 -27.5 -69.5t-70.5 -26.5q-45 0 -72.5 25.5t-27.5 70.5zM0 0h170v1434h-170v-1434zM143 1595q0 47 29 75t74 28q41 0 68.5 -31t27.5 -72q0 -45 -26.5 -70.5t-69.5 -25.5q-47 0 -75 25.5t-28 70.5z" />
<glyph unicode="&#xd0;" horiz-adv-x="972" d="M-59 631h438v170h-438v-170zM4 133v1170q0 57 40 94t93 37h309q135 0 236.5 -102.5t101.5 -237.5v-756q0 -143 -100 -240.5t-238 -97.5h-309q-57 0 -95 40t-38 93zM174 1264q0 -186 1 -547t1 -547h270q70 0 119 49t49 119v754q0 70 -49 121t-119 51h-272z" />
<glyph unicode="&#xd1;" horiz-adv-x="954" d="M-2 0v1319q-2 55 33 88t82 33q39 0 75.5 -22.5t44.5 -59.5l-2 4l422 -1192h13l-60 270l-8 994h170v-1317q0 -55 -31.5 -86t-77.5 -31q-33 0 -67.5 20.5t-48.5 53.5q-57 143 -163 432t-144 389q-20 55 -55.5 194.5t-41.5 155.5l-24 -6l49 -252l8 -987h-174zM119 1638 l100 74q20 -29 47 -41t43 2q55 57 109.5 61.5t101.5 -32.5t101 -113l-101 -78q-18 37 -47 57.5t-55 4.5q-86 -82 -153.5 -63t-145.5 128z" />
<glyph unicode="&#xd2;" d="M-2 336v764q0 164 113.5 255t271.5 91t272.5 -92t114.5 -254v-764q0 -164 -114.5 -256t-272.5 -92t-271.5 92t-113.5 256zM147 1710l152 90l166 -305l-158 -2zM164 336q0 -84 65.5 -131t153.5 -47t152.5 47t64.5 131v764q0 82 -64.5 129t-152.5 47t-153.5 -47t-65.5 -129 v-764z" />
<glyph unicode="&#xd3;" d="M-2 336q0 -164 113.5 -256t271.5 -92t272.5 92t114.5 256v764q0 162 -114.5 254t-272.5 92t-271.5 -91t-113.5 -255v-764zM164 336v764q0 82 65.5 129t153.5 47t152.5 -47t64.5 -129v-764q0 -84 -64.5 -131t-152.5 -47t-153.5 47t-65.5 131zM287 1491l170 281l159 -70 l-170 -211h-159z" />
<glyph unicode="&#xd4;" horiz-adv-x="944" d="M-14 336v764q0 164 113.5 255t271 91t272.5 -92t115 -254v-764q0 -164 -115 -256t-272.5 -92t-271 92t-113.5 256zM119 1597l205 152q51 33 102 0l190 -150l-98 -112l-143 112q-25 -18 -88.5 -67t-69.5 -53zM152 336q0 -84 65.5 -131t153.5 -47t152.5 47t64.5 131v764 q0 82 -64.5 129t-152.5 47t-153.5 -47t-65.5 -129v-764z" />
<glyph unicode="&#xd5;" d="M-2 336v764q0 164 113.5 255t271.5 91t272.5 -92t114.5 -254v-764q0 -164 -114.5 -256t-272.5 -92t-271.5 92t-113.5 256zM127 1628l100 74q20 -29 47 -41t43 2q55 57 109.5 61.5t101.5 -32.5t101 -113l-101 -78q-18 37 -46.5 57.5t-55.5 4.5q-86 -82 -153.5 -63 t-145.5 128zM164 336q0 -84 65.5 -131t153.5 -47t152.5 47t64.5 131v764q0 82 -64.5 129t-152.5 47t-153.5 -47t-65.5 -129v-764z" />
<glyph unicode="&#xd6;" d="M-2 336q0 -164 113.5 -256t271.5 -92t272.5 92t114.5 256v764q0 162 -114.5 254t-272.5 92t-271.5 -91t-113.5 -255v-764zM117 1595q0 45 27.5 74t72.5 29q41 0 69.5 -32t28.5 -71q0 -43 -27.5 -69.5t-70.5 -26.5q-45 0 -72.5 25.5t-27.5 70.5zM164 336v764 q0 82 65.5 129t153.5 47t152.5 -47t64.5 -129v-764q0 -84 -64.5 -131t-152.5 -47t-153.5 47t-65.5 131zM442 1595q0 47 29 75t74 28q41 0 68.5 -31t27.5 -72q0 -45 -26.5 -70.5t-69.5 -25.5q-47 0 -75 25.5t-28 70.5z" />
<glyph unicode="&#xd8;" horiz-adv-x="964" d="M6 336v764q0 164 113.5 255t271.5 91t272.5 -92t114.5 -254v-764q0 -164 -114.5 -256t-272.5 -92t-271.5 92t-113.5 256zM49 -133l539 1634h178l-543 -1634h-174zM172 336q0 -84 65.5 -131t153.5 -47t152.5 47t64.5 131v764q0 82 -64.5 129t-152.5 47t-153.5 -47 t-65.5 -129v-764z" />
<glyph unicode="&#xd9;" d="M-2 332v1102h166v-1102q6 -78 72.5 -128t148.5 -50q88 0 151.5 47t63.5 131v1102h170v-1102q0 -164 -114.5 -256t-272.5 -92t-271.5 92t-113.5 256zM168 1714l151 90l164 -303l-157 -2z" />
<glyph unicode="&#xda;" d="M-2 332q0 -164 113.5 -256t271.5 -92t272.5 92t114.5 256v1102h-170v-1102q0 -84 -63.5 -131t-151.5 -47q-82 0 -148.5 50t-72.5 128v1102h-166v-1102zM289 1493l166 276l157 -69l-168 -207h-155z" />
<glyph unicode="&#xdb;" d="M-2 332v1102h166v-1102q6 -78 72.5 -128t148.5 -50q88 0 151.5 47t63.5 131v1102h170v-1102q0 -164 -114.5 -256t-272.5 -92t-271.5 92t-113.5 256zM133 1606l207 151q51 35 102 0l195 -149l-100 -115l-146 115q-25 -18 -89 -68.5t-71 -54.5z" />
<glyph unicode="&#xdc;" d="M-2 332q0 -164 113.5 -256t271.5 -92t272.5 92t114.5 256v1102h-170v-1102q0 -84 -63.5 -131t-151.5 -47q-82 0 -148.5 50t-72.5 128v1102h-166v-1102zM125 1606q0 45 27.5 73.5t72.5 28.5q41 0 70 -31.5t29 -70.5q0 -43 -28 -70t-71 -27q-45 0 -72.5 26t-27.5 71z M451 1606q0 45 28.5 73.5t73.5 28.5q41 0 68.5 -30.5t27.5 -71.5q0 -45 -26.5 -71t-69.5 -26q-47 0 -74.5 26t-27.5 71z" />
<glyph unicode="&#xdd;" horiz-adv-x="933" d="M-63 1434q109 -264 210 -498q47 -109 134 -313v-623h170v618l346 816h-185q-25 -57 -117 -294t-112 -288q-6 -25 -16 -113l-19 111q-2 2 -99 252t-132 332h-180zM293 1485l158 280l151 -69l-162 -211h-147z" />
<glyph unicode="&#xde;" horiz-adv-x="897" d="M0 2v1430h168v-256h213q143 0 242.5 -102.5t99.5 -242.5v-213q0 -135 -99.5 -236t-242.5 -101h-213v-277zM168 451h213q72 0 122 49t50 118v213q0 72 -50 123.5t-122 51.5h-213v-555z" />
<glyph unicode="&#xdf;" horiz-adv-x="804" d="M2 4v1065q0 139 95.5 226t238.5 85q139 -2 229 -92t90 -231v-88q0 -143 -100 -244q113 -102 113 -246v-147q0 -143 -96.5 -240.5t-237.5 -97.5h-166v10h-166zM168 160h166q70 0 120 50t50 120v149q0 66 -49 113t-119 47h-168v-479zM168 805h166q68 0 113 46t45 114v92 q0 68 -45.5 114t-110.5 43q-72 0 -120 -37.5t-48 -105.5v-266z" />
<glyph unicode="&#xe0;" horiz-adv-x="841" d="M-4 315v58q0 131 90 225t229 94q51 0 101.5 -30.5t66.5 -77.5l-4 86q0 66 -47 111.5t-113 45.5q-76 0 -155 -77l-90 137q119 109 245 108q131 0 228.5 -96t97.5 -229v-670h-133l-16 104q-14 -57 -70.5 -86.5t-106.5 -29.5q-131 0 -227 97t-96 230zM123 1235l151 76 l162 -256l-155 -2zM162 315q0 -66 47 -113.5t110 -47.5q59 0 109.5 42t50.5 95v100q0 61 -46 100t-114 39q-66 0 -111.5 -46t-45.5 -111v-58z" />
<glyph unicode="&#xe1;" horiz-adv-x="839" d="M-6 315v58q0 131 90 225t229 94q51 0 101.5 -30.5t66.5 -77.5l-4 86q0 66 -47 111.5t-113 45.5q-76 0 -155 -77l-90 137q119 109 245 108q131 0 228.5 -96t97.5 -229v-670h-133l-16 104q-14 -57 -70.5 -86.5t-106.5 -29.5q-131 0 -227 97t-96 230zM160 315 q0 -66 47 -113.5t110 -47.5q59 0 109.5 42t50.5 95v100q0 61 -46 100t-114 39q-66 0 -111.5 -46t-45.5 -111v-58zM246 1053l151 235l146 -59l-156 -176h-141z" />
<glyph unicode="&#xe2;" horiz-adv-x="841" d="M-4 315v58q0 131 90 225t229 94q51 0 101.5 -30.5t66.5 -77.5l-4 86q0 66 -47 111.5t-113 45.5q-76 0 -155 -77l-90 137q119 109 245 108q131 0 228.5 -96t97.5 -229v-670h-133l-16 104q-14 -57 -70.5 -86.5t-106.5 -29.5q-131 0 -227 97t-96 230zM113 1141l180 131 q45 29 90 0l168 -129l-86 -101l-127 101q-16 -12 -49 -39t-59.5 -46.5t-30.5 -23.5zM162 315q0 -66 47 -113.5t110 -47.5q59 0 109.5 42t50.5 95v100q0 61 -46 100t-114 39q-66 0 -111.5 -46t-45.5 -111v-58z" />
<glyph unicode="&#xe3;" horiz-adv-x="843" d="M-2 315v58q0 131 90 225t229 94q51 0 101.5 -30.5t66.5 -77.5l-4 86q0 66 -47 111.5t-112 45.5q-76 0 -156 -77l-90 137q119 109 246 108q131 0 228 -96t97 -229v-670h-133l-16 104q-14 -57 -70.5 -86.5t-105.5 -29.5q-131 0 -227.5 97t-96.5 230zM121 1169l86 64 q18 -25 40.5 -35t37.5 2q47 49 93 52t87 -27.5t88 -96.5l-88 -67q-16 31 -41 48t-47 5q-74 -70 -132 -54.5t-124 109.5zM164 315q0 -66 47 -113.5t111 -47.5q59 0 109 42t50 95v100q0 61 -46 100t-113 39q-66 0 -112 -46t-46 -111v-58z" />
<glyph unicode="&#xe4;" horiz-adv-x="843" d="M-2 315v58q0 131 90 225t229 94q51 0 101.5 -30.5t66.5 -77.5l-4 86q0 66 -47 111.5t-112 45.5q-76 0 -156 -77l-90 137q119 109 246 108q131 0 228 -96t97 -229v-670h-133l-16 104q-14 -57 -70.5 -86.5t-105.5 -29.5q-131 0 -227.5 97t-96.5 230zM100 1135q0 41 25 66.5 t65 25.5q37 0 63 -29t26 -63q0 -39 -25 -61.5t-64 -22.5q-41 0 -65.5 22.5t-24.5 61.5zM164 315q0 -66 47 -113.5t111 -47.5q59 0 109 42t50 95v100q0 61 -46 100t-113 39q-66 0 -112 -46t-46 -111v-58zM391 1135q0 41 25.5 66.5t66.5 25.5q37 0 61.5 -29t24.5 -63 q0 -39 -23.5 -61.5t-62.5 -22.5q-41 0 -66.5 22.5t-25.5 61.5z" />
<glyph unicode="&#xe5;" horiz-adv-x="843" d="M-2 315v58q0 131 90 225t229 94q51 0 101.5 -30.5t66.5 -77.5l-4 86q0 66 -47 111.5t-112 45.5q-76 0 -156 -77l-90 137q119 109 246 108q131 0 228 -96t97 -229v-670h-133l-16 104q-14 -57 -70.5 -86.5t-105.5 -29.5q-131 0 -227.5 97t-96.5 230zM150 1104q0 74 52 128 t128 54q74 0 129 -55t55 -127q0 -74 -55.5 -127t-128.5 -53q-76 0 -128 53t-52 127zM164 315q0 -66 47 -113.5t111 -47.5q59 0 109 42t50 95v100q0 61 -46 100t-113 39q-66 0 -112 -46t-46 -111v-58zM285 1103.5q0 -20.5 13 -34.5t32 -14q20 0 34.5 14t14.5 34.5t-14.5 34 t-34.5 13.5q-18 0 -31.5 -13.5t-13.5 -34z" />
<glyph unicode="&#xe6;" horiz-adv-x="1355" d="M-6 315v70q0 129 96 226.5t225 97.5q102 0 160 -41v2q0 66 -47 111.5t-113 45.5q-92 0 -163 -59l-86 119q127 109 249 108q78 0 146.5 -44t95.5 -152q20 96 91 147t151 51q131 0 227 -95t96 -230q0 -137 -96 -231.5t-227 -94.5h-160v-37q4 -61 51 -106t109 -45 q117 0 172 88l133 -84q-115 -170 -305 -170q-51 0 -101.5 33.5t-64.5 95.5q-14 -86 -23 -123h-108l-17 119q-10 -61 -66.5 -95t-103.5 -36q-131 0 -226 98t-95 231zM156 315q0 -66 47 -113.5t112 -47.5q63 2 110.5 31.5t47.5 80.5v150q0 57 -44 91t-114 36q-66 0 -112.5 -46 t-46.5 -112v-70zM639 510h160q66 0 112.5 48t46.5 113.5t-47 111.5t-112 46q-61 0 -108.5 -46t-51.5 -111v-162z" />
<glyph unicode="&#xe7;" horiz-adv-x="845" d="M0 315v357q0 137 97.5 231t230.5 94q131 0 226 -111.5t97 -271.5h-166q0 92 -46 153.5t-111.5 61.5t-113.5 -47t-48 -110v-357q0 -66 48 -112.5t113.5 -46.5t111.5 64.5t46 152.5h166q-2 -137 -70.5 -245t-183.5 -128q8 -49 59.5 -59.5t94.5 26.5l67 -112 q-113 -84 -227.5 -38t-140.5 181q-106 29 -178 117.5t-72 199.5z" />
<glyph unicode="&#xe8;" horiz-adv-x="806" d="M0 315v355q0 131 95 229t231 98q133 0 228 -95t95 -230t-93 -213t-230 -78h-160v-66q0 -66 47 -111.5t113 -45.5q98 0 170 100l135 -98q-115 -168 -305 -168q-133 0 -229.5 93t-96.5 230zM98 1257l154 93l168 -310l-160 -2zM166 510h160q63 0 110 48t47 113.5t-47 111.5 t-110 46q-66 0 -113 -48t-47 -113v-158z" />
<glyph unicode="&#xe9;" horiz-adv-x="804" d="M0 315v355q0 131 95 229t231 98q133 0 228 -95t95 -230t-93 -213t-230 -78h-160v-66q0 -66 47 -111.5t113 -45.5q98 0 170 100l135 -98q-115 -168 -305 -168q-133 0 -229.5 93t-96.5 230zM166 510h160q63 0 110 48t47 113.5t-47 111.5t-110 46q-66 0 -113 -48t-47 -113 v-158zM221 1040l170 285l164 -72l-174 -213h-160z" />
<glyph unicode="&#xea;" horiz-adv-x="804" d="M0 315v355q0 131 95 229t231 98q133 0 228 -95t95 -230t-93 -213t-230 -78h-160v-66q0 -66 47 -111.5t113 -45.5q98 0 170 100l135 -98q-115 -168 -305 -168q-133 0 -229.5 93t-96.5 230zM78 1141l192 141q47 31 95 0l178 -139l-90 -107l-136 107q-25 -16 -83 -63.5 t-64 -51.5zM166 510h160q63 0 110 48t47 113.5t-47 111.5t-110 46q-66 0 -113 -48t-47 -113v-158z" />
<glyph unicode="&#xeb;" horiz-adv-x="813" d="M0 315v355q0 131 95 229t231 98q133 0 228 -95t95 -230t-93 -213t-230 -78h-160v-66q0 -66 47 -111.5t113 -45.5q98 0 170 100l135 -98q-115 -168 -305 -168q-133 0 -229.5 93t-96.5 230zM57 1118q0 45 28 74t73 29q41 0 69.5 -32t28.5 -71q0 -43 -27.5 -69.5 t-70.5 -26.5q-45 0 -73 25.5t-28 70.5zM166 510h160q63 0 110 48t47 113.5t-47 111.5t-110 46q-66 0 -113 -48t-47 -113v-158zM383 1118q0 45 27.5 74t74.5 29q41 0 69 -31t28 -72q0 -45 -27 -70.5t-70 -25.5q-47 0 -74.5 25.5t-27.5 70.5z" />
<glyph unicode="&#xec;" horiz-adv-x="346" d="M-111 1286l144 88l155 -293l-147 -2zM35 0v987h166v-987h-166z" />
<glyph unicode="&#xed;" horiz-adv-x="327" d="M18 1059l170 291l160 -74l-170 -217h-160zM25 0h165v987h-165v-987z" />
<glyph unicode="&#xee;" horiz-adv-x="342" d="M-129 1151l201 147q47 33 100 0l188 -145l-98 -111l-141 111q-18 -12 -55 -41t-66 -51.5t-33 -24.5zM35 0v987h162v-987h-162z" />
<glyph unicode="&#xef;" horiz-adv-x="331" d="M-152 1200q0 45 28 74t73 29q41 0 69.5 -32t28.5 -71q0 -43 -27.5 -69.5t-70.5 -26.5q-45 0 -73 25.5t-28 70.5zM25 0h163v987h-163v-987zM174 1200q0 45 27.5 74t74.5 29q41 0 69 -31t28 -72q0 -45 -27 -70.5t-70 -25.5q-47 0 -74.5 25.5t-27.5 70.5z" />
<glyph unicode="&#xf0;" horiz-adv-x="919" d="M-20 803v254q0 160 108.5 247t259.5 87q150 0 258.5 -87t108.5 -247v-742q0 -160 -105.5 -244.5t-257.5 -84.5q-182 0 -325 147l127 109q88 -90 198 -90q82 0 141.5 43t59.5 120v289q-29 -66 -88 -97.5t-117 -31.5q-158 0 -263 84t-105 244zM141 803q0 -78 60.5 -121 t146.5 -43q84 0 144.5 44t60.5 126v248q0 78 -61.5 123t-141.5 45q-82 0 -144.5 -45t-64.5 -123v-254z" />
<glyph unicode="&#xf1;" horiz-adv-x="845" d="M0 0v987h131l23 -100q43 100 172 110q131 8 228 -93t97 -232v-672h-166v672q0 66 -48 112.5t-113 46.5q-63 0 -110.5 -47t-47.5 -112v-672h-166zM86 1182l94 67q20 -27 45 -38t41 1q135 139 291 -73l-94 -72q-16 33 -44 51.5t-50 3.5q-82 -72 -145.5 -55t-137.5 115z" />
<glyph unicode="&#xf2;" horiz-adv-x="905" d="M-2 315v359q0 156 98.5 239.5t233.5 83.5q137 0 235.5 -84t98.5 -239v-359q0 -156 -99.5 -240.5t-234.5 -84.5q-137 0 -234.5 84.5t-97.5 240.5zM106 1249l160 82l176 -276l-168 -2zM162 315q0 -74 50 -115.5t117.5 -41.5t118 42t50.5 115v359q0 74 -50.5 117t-118 43 t-117.5 -43t-50 -117v-359z" />
<glyph unicode="&#xf3;" horiz-adv-x="905" d="M-2 315v359q0 156 98.5 239.5t233.5 83.5q137 0 235.5 -84t98.5 -239v-359q0 -156 -99.5 -240.5t-234.5 -84.5q-137 0 -234.5 84.5t-97.5 240.5zM162 315q0 -74 50 -115.5t117.5 -41.5t118 42t50.5 115v359q0 74 -50.5 117t-118 43t-117.5 -43t-50 -117v-359zM217 1047 l195 274l186 -68l-199 -206h-182z" />
<glyph unicode="&#xf4;" horiz-adv-x="907" d="M0 315v359q0 156 98.5 239.5t233.5 83.5q137 0 235.5 -84t98.5 -239v-359q0 -156 -99.5 -240.5t-234.5 -84.5q-137 0 -234.5 84.5t-97.5 240.5zM59 1153l217 160q53 35 109 0l203 -158l-105 -121l-153 121q-20 -14 -59.5 -45t-70 -55.5t-36.5 -28.5zM164 315 q0 -74 50 -115.5t117.5 -41.5t118 42t50.5 115v359q0 74 -50.5 117t-118 43t-117.5 -43t-50 -117v-359z" />
<glyph unicode="&#xf5;" horiz-adv-x="905" d="M-2 315v359q0 156 98.5 239.5t233.5 83.5q137 0 235.5 -84t98.5 -239v-359q0 -156 -99.5 -240.5t-234.5 -84.5q-137 0 -234.5 84.5t-97.5 240.5zM61 1188l101 74q20 -29 47 -41.5t43 2.5q55 57 109.5 61t101.5 -33t100 -112l-100 -78q-18 37 -47 57.5t-56 3.5 q-86 -82 -153.5 -62.5t-145.5 128.5zM162 315q0 -74 50 -115.5t117.5 -41.5t118 42t50.5 115v359q0 74 -50.5 117t-118 43t-117.5 -43t-50 -117v-359z" />
<glyph unicode="&#xf6;" horiz-adv-x="909" d="M2 315v359q0 156 98.5 239.5t233.5 83.5q137 0 235.5 -84t98.5 -239v-359q0 -156 -99.5 -240.5t-234.5 -84.5q-137 0 -234.5 84.5t-97.5 240.5zM74 1155q0 45 27.5 73.5t72.5 28.5q41 0 69.5 -31.5t28.5 -70.5q0 -43 -27.5 -69.5t-70.5 -26.5q-45 0 -72.5 25.5 t-27.5 70.5zM166 315q0 -74 50 -115.5t117.5 -41.5t118 42t50.5 115v359q0 74 -50.5 117t-118 43t-117.5 -43t-50 -117v-359zM399 1155q0 45 28 73.5t75 28.5q41 0 68.5 -30.5t27.5 -71.5q0 -45 -26.5 -70.5t-69.5 -25.5q-47 0 -75 25.5t-28 70.5z" />
<glyph unicode="&#xf8;" horiz-adv-x="856" d="M2 334v356q0 156 99.5 241t234.5 85q33 0 86 -8v4q2 10 8 22q0 6 4 19l17 39l153 -41l-41 -117q104 -100 105 -244v-356q0 -154 -98.5 -239t-233.5 -85q-57 0 -82 4q0 -10 -8 -26v2q-4 -14 -17.5 -48t-17.5 -44l-148 57l46 131q-107 96 -107 248zM168 334q0 -31 6 -53 q10 31 32.5 94t35.5 94l75 229h-2q8 25 25.5 72t28.5 78q-20 4 -33 4q-66 0 -117 -44t-51 -118v-356zM305 178q6 0 16.5 -1t14.5 -1q68 0 118 42t50 116v356q0 23 -6 45q0 -2 -2 -6q-31 -82 -35 -94q-10 -31 -35 -101.5t-35 -101.5q-23 -61 -86 -254z" />
<glyph unicode="&#xf9;" horiz-adv-x="831" d="M0 313v672h166v-672q0 -66 45 -111.5t108.5 -45.5t109.5 46t46 111v672h164v-672q0 -133 -91 -228t-229 -95q-133 0 -226 96t-93 227zM88 1270l158 92l168 -309l-162 -2z" />
<glyph unicode="&#xfa;" horiz-adv-x="829" d="M-2 313q0 -131 93 -227t226 -96q137 0 228.5 95t91.5 228v672h-164v-672q0 -66 -46 -111.5t-109.5 -45.5t-108.5 46t-45 111v672h-166v-672zM242 1063l157 264l152 -65l-162 -199h-147z" />
<glyph unicode="&#xfb;" horiz-adv-x="829" d="M-2 313v672h166v-672q0 -66 45 -111.5t108.5 -45.5t109.5 46t46 111v672h164v-672q0 -133 -91 -228t-229 -95q-133 0 -226 96t-93 227zM72 1157l196 148q51 33 101 0l184 -146l-96 -110l-140 110q-18 -12 -54 -40.5t-63.5 -51.5t-33.5 -25z" />
<glyph unicode="&#xfc;" horiz-adv-x="831" d="M0 313q0 -131 93 -227t226 -96q137 0 228.5 95t91.5 228v672h-164v-672q0 -66 -46 -111.5t-109.5 -45.5t-108.5 46t-45 111v672h-166v-672zM61 1155q0 45 28 73.5t73 28.5q41 0 69.5 -31.5t28.5 -70.5q0 -43 -27.5 -69.5t-70.5 -26.5q-45 0 -73 25.5t-28 70.5zM387 1155 q0 45 27.5 73.5t74.5 28.5q41 0 69 -30.5t28 -71.5q0 -45 -27 -70.5t-70 -25.5q-47 0 -74.5 25.5t-27.5 70.5z" />
<glyph unicode="&#xfd;" horiz-adv-x="843" d="M-2 309q0 -133 99.5 -228t230.5 -87q41 2 88 28.5t65 77.5v-180q0 -63 -46 -109.5t-109 -46.5q-74 0 -166 76l-109 -125q63 -51 139 -84.5t136 -33.5q131 0 225 93t96 230v1065h-166v-704q0 -57 -44 -90t-109 -33q-66 -2 -115 43t-49 108v676h-166v-676zM223 1044 l193 320l182 -80l-195 -240h-180z" />
<glyph unicode="&#xfe;" horiz-adv-x="825" d="M-14 -176v1503h168v-233q63 45 153 45q131 0 228.5 -99.5t97.5 -228.5v-391q0 -133 -97.5 -229.5t-228.5 -96.5q-92 0 -153 45v-315q0 -29 -84 -29t-84 29zM141 322h35l-31 -13zM154 403q0 -16 26 -69q41 -74 127 -74q66 0 113 47t47 113v391q0 66 -47 113t-113 47 q-59 0 -106 -44t-47 -104v-420zM176 322h6v2z" />
<glyph unicode="&#xff;" horiz-adv-x="843" d="M-2 309q0 -133 99.5 -228t230.5 -87q41 2 88 28.5t65 77.5v-180q0 -63 -46 -109.5t-109 -46.5q-74 0 -166 76l-109 -125q63 -51 139 -84.5t136 -33.5q131 0 225 93t96 230v1065h-166v-704q0 -57 -44 -90t-109 -33q-66 -2 -115 43t-49 108v676h-166v-676zM49 1163 q0 45 28.5 72t76.5 27q43 0 71.5 -30t28.5 -69q0 -41 -27.5 -65.5t-72.5 -24.5q-47 0 -76 24.5t-29 65.5zM387 1163q0 45 28.5 72t76.5 27q43 0 71.5 -30t28.5 -69q0 -41 -27.5 -65.5t-72.5 -24.5q-47 0 -76 24.5t-29 65.5z" />
<glyph unicode="&#x152;" horiz-adv-x="1548" d="M-2 336v764q0 162 115.5 254t271.5 92q139 0 244 -82q43 70 125 70h499v-170l-479 -4v-441h459v-170h-459v-307q0 -70 49 -121t117 -51h313v-170h-313q-70 0 -142.5 42t-107.5 112q-43 -78 -129 -121t-176 -43q-156 0 -271.5 92t-115.5 254zM170 336q0 -82 64.5 -130 t150.5 -48q90 0 155.5 48t65.5 130v764q0 82 -65.5 129t-155.5 47q-86 0 -150.5 -47t-64.5 -129v-764z" />
<glyph unicode="&#x153;" horiz-adv-x="1394" d="M6 315v359q0 156 98.5 239.5t231.5 83.5q76 0 151.5 -50t96.5 -136q23 88 93.5 137t149.5 49q131 0 226.5 -95t95.5 -230q0 -137 -95.5 -231.5t-226.5 -94.5h-159v-31q0 -66 46 -111.5t113 -45.5q96 0 170 100l138 -98q-123 -168 -308 -168q-76 0 -151.5 51t-93.5 129 q-23 -86 -96.5 -132t-151.5 -46q-133 0 -230.5 83.5t-97.5 237.5zM168 315q0 -74 50 -115.5t117.5 -41.5t118 42t50.5 115v359q0 74 -50.5 117t-118 43t-117.5 -43t-50 -117v-359zM668 510h159q66 0 112 48t46 113.5t-46 111.5t-112 46q-68 0 -113.5 -47t-45.5 -114v-158z " />
<glyph unicode="&#x178;" horiz-adv-x="921" d="M-76 1434q109 -264 211 -498q47 -109 133 -313v-623h170v618l346 816h-184q-25 -57 -117 -294t-112 -288q-6 -25 -17 -113l-18 111q-2 2 -99.5 252t-132.5 332h-180zM104 1606q0 45 28 73.5t73 28.5q41 0 69.5 -31.5t28.5 -70.5q0 -43 -27.5 -70t-70.5 -27q-45 0 -73 26 t-28 71zM403 1606q0 45 28 73.5t75 28.5q41 0 68.5 -30.5t27.5 -71.5q0 -45 -26.5 -71t-69.5 -26q-47 0 -75 26t-28 71z" />
<glyph unicode="&#x2c6;" horiz-adv-x="923" d="M94 1341l217 160q53 35 109 0l203 -158l-105 -120l-153 120q-20 -14 -59.5 -44.5t-70 -55t-36.5 -29.5z" />
<glyph unicode="&#x2dc;" horiz-adv-x="778" d="M51 1407l101 74q20 -29 46.5 -41.5t43.5 2.5q55 57 109.5 61t101.5 -32.5t100 -112.5l-100 -78q-18 37 -47 57.5t-56 3.5q-86 -82 -153.5 -62.5t-145.5 128.5z" />
<glyph unicode="&#x2000;" horiz-adv-x="911" />
<glyph unicode="&#x2001;" horiz-adv-x="1824" />
<glyph unicode="&#x2002;" horiz-adv-x="911" />
<glyph unicode="&#x2003;" horiz-adv-x="1824" />
<glyph unicode="&#x2004;" horiz-adv-x="608" />
<glyph unicode="&#x2005;" horiz-adv-x="454" />
<glyph unicode="&#x2006;" horiz-adv-x="303" />
<glyph unicode="&#x2007;" horiz-adv-x="303" />
<glyph unicode="&#x2008;" horiz-adv-x="227" />
<glyph unicode="&#x2009;" horiz-adv-x="364" />
<glyph unicode="&#x200a;" horiz-adv-x="100" />
<glyph unicode="&#x2010;" horiz-adv-x="860" d="M2 516v166h633v-166h-633z" />
<glyph unicode="&#x2011;" horiz-adv-x="860" d="M2 516v166h633v-166h-633z" />
<glyph unicode="&#x2012;" horiz-adv-x="860" d="M2 516v166h633v-166h-633z" />
<glyph unicode="&#x2013;" horiz-adv-x="989" d="M10 516v166h752v-166h-752z" />
<glyph unicode="&#x2014;" horiz-adv-x="1665" d="M12 516v166h1403v-166h-1403z" />
<glyph unicode="&#x2018;" horiz-adv-x="370" d="M-10 1202l98 244l119 -4l-57 -209q33 -10 32 -51q2 -70 -69 -88q-68 -16 -109 28q-26 31 -14 80z" />
<glyph unicode="&#x2019;" horiz-adv-x="378" d="M-2 1083l57 209q-33 10 -32 51q-2 70 69 89q68 16 109 -29q27 -31 14 -80l-98 -244z" />
<glyph unicode="&#x201a;" horiz-adv-x="366" d="M20 2v471l164 2v-475z" />
<glyph unicode="&#x201c;" horiz-adv-x="573" d="M-4 1208l90 238l127 -4l-53 -203q25 -25 24 -49q0 -39 -26.5 -66.5t-67.5 -27.5q-45 0 -73.5 32.5t-20.5 79.5zM250 1208l90 238l129 -4l-51 -203q20 -18 20 -49q0 -39 -26.5 -66.5t-67.5 -27.5q-45 0 -73.5 32.5t-20.5 79.5z" />
<glyph unicode="&#x201d;" horiz-adv-x="602" d="M-12 1098l51 202q-20 18 -21 50q0 39 27 66.5t68 27.5q45 0 73.5 -33t20.5 -80l-90 -237zM244 1098l53 202q-25 25 -25 50q0 39 27 66.5t68 27.5q45 0 73.5 -33t20.5 -80l-90 -237z" />
<glyph unicode="&#x201e;" horiz-adv-x="577" d="M23 2v481l165 2v-485zM262 2v481l164 2v-485z" />
<glyph unicode="&#x2022;" horiz-adv-x="854" d="M4 698.5q0 137.5 96.5 235.5t233.5 98q133 0 232.5 -99t99.5 -235q0 -137 -98.5 -232t-233.5 -95q-139 0 -234.5 95t-95.5 232.5zM172 698q0 -68 48 -114.5t114 -46.5q70 0 119 47t49 114q0 70 -49.5 118t-118.5 48q-66 0 -114 -48t-48 -118z" />
<glyph unicode="&#x2026;" horiz-adv-x="817" d="M8 100q0 41 27.5 71t70.5 30q41 0 69 -31t28 -70q0 -45 -26.5 -71.5t-70.5 -26.5q-45 0 -71.5 26.5t-26.5 71.5zM250 100q0 41 26.5 71t71.5 30q41 0 68.5 -31t27.5 -70q0 -45 -26.5 -71.5t-69.5 -26.5q-45 0 -71.5 26.5t-26.5 71.5zM502 100q0 41 27.5 71t70.5 30 q41 0 68.5 -31t27.5 -70q0 -45 -26.5 -71.5t-69.5 -26.5q-45 0 -71.5 26.5t-26.5 71.5z" />
<glyph unicode="&#x202f;" horiz-adv-x="364" />
<glyph unicode="&#x2039;" horiz-adv-x="636" d="M-2 681q2 17 31 54v-2q133 190 256 348l133 -98l-225 -305q12 -14 113.5 -153.5t111.5 -149.5l-131 -115l-264 371q-27 33 -25 50z" />
<glyph unicode="&#x203a;" horiz-adv-x="675" d="M41 979l139 96q238 -328 252 -346q25 -31 27 -49t-19 -55q-35 -51 -131 -179.5t-135 -189.5l-131 111q8 12 108.5 146t118.5 161z" />
<glyph unicode="&#x205f;" horiz-adv-x="454" />
<glyph unicode="&#x2122;" horiz-adv-x="1456" d="M14 1221v165h492v-165h-168v-592h-164v592h-160zM567 623v673q0 59 41 86t87 11.5t63 -60.5l151 -415q10 27 48 128t70 183t42 100q18 43 60 57.5t77 -10t35 -80.5v-673h-160l9 262l45 245l-13 3l-49 -170q-25 -66 -86 -189q-35 -61 -82 -61q-53 0 -76 57v-2 q-16 31 -30.5 64.5t-29.5 70.5t-24 55l-43 175l-12 -3l41 -260l2 -247h-166z" />
<glyph unicode="&#xe000;" horiz-adv-x="980" d="M0 980h980v-980h-980v980z" />
<glyph unicode="&#xfb01;" horiz-adv-x="862" d="M492 1200q0 47 29.5 76t70.5 29q43 0 75 -30t32 -75q0 -43 -32 -72.5t-75 -29.5q-41 0 -70.5 29.5t-29.5 72.5zM512 0v985h164v-985h-164zM0 0v1071q0 139 115.5 234.5t273.5 95.5v-164q-90 0 -157.5 -49t-67.5 -117v-303h203v-164h-203v-604h-164z" />
<glyph unicode="&#xfb02;" horiz-adv-x="976" d="M500 332v1057h164v-1057q0 -72 60.5 -120t148.5 -48v-164q-160 0 -266.5 93.5t-106.5 238.5zM0 0v1071q0 139 115.5 234.5t273.5 95.5v-164q-90 0 -157.5 -49t-67.5 -117v-303h203v-164h-203v-604h-164z" />
<glyph unicode="&#xfb03;" horiz-adv-x="1361" d="M991 1200q0 47 29.5 76t70.5 29q43 0 75 -30t32 -75q0 -43 -32 -72.5t-75 -29.5q-41 0 -70.5 29.5t-29.5 72.5zM1011 0v985h164v-985h-164zM500 0v1071q0 139 115.5 234.5t273.5 95.5v-164q-90 0 -157.5 -49t-67.5 -117v-303h203v-164h-203v-604h-164zM0 0v1071 q0 139 115.5 234.5t273.5 95.5v-164q-90 0 -157.5 -49t-67.5 -117v-303h203v-164h-203v-604h-164z" />
<glyph unicode="&#xfb04;" horiz-adv-x="1476" d="M999 332v1057h164v-1057q0 -72 60.5 -120t148.5 -48v-164q-160 0 -266.5 93.5t-106.5 238.5zM500 0v1071q0 139 115.5 234.5t273.5 95.5v-164q-90 0 -157.5 -49t-67.5 -117v-303h203v-164h-203v-604h-164zM0 0v1071q0 139 115.5 234.5t273.5 95.5v-164q-90 0 -157.5 -49 t-67.5 -117v-303h203v-164h-203v-604h-164z" />
<glyph horiz-adv-x="917" />
</font>
</defs>
</svg>
