<?xml version="1.0" encoding="utf-8"?>
<!-- Generator: Adobe Illustrator 15.0.2, SVG Export Plug-In . SVG Version: 6.00 Build 0)  -->
<!DOCTYPE svg PUBLIC "-//W3C//DTD SVG 1.1//EN" "http://www.w3.org/Graphics/SVG/1.1/DTD/svg11.dtd">
<svg version="1.1" id="Layer_1" xmlns="http://www.w3.org/2000/svg" xmlns:xlink="http://www.w3.org/1999/xlink" x="0px" y="0px"
	 width="252.195px" height="229.973px" viewBox="0 0 252.195 229.973" enable-background="new 0 0 252.195 229.973"
	 xml:space="preserve">
<g>
	<path fill="#282828" d="M0.324,198.693c0,0,52.177-16.759,52.177-88.479c0-71.694,54.353-84.725,71.669-84.725h4.404
		c17.342,0,71.695,13.03,71.695,84.725c0,71.72,51.177,89.983,51.177,89.983"/>
	<path fill="#282828" d="M252.195,199.043c0,17.066-56.455,30.93-126.098,30.93S0,216.11,0,199.043s56.455-30.88,126.098-30.88
		S252.195,181.977,252.195,199.043z"/>
	<path fill="#282828" d="M151.047,24.975c0,13.763-11.161,24.949-24.949,24.949c-13.789,0-24.949-11.186-24.949-24.949
		C101.148,11.161,112.309,0,126.098,0C139.886,0,151.047,11.161,151.047,24.975z"/>
</g>
</svg>
